<?xml version="1.0" encoding="UTF-8"?>
<svg width="71px" height="76px" viewBox="0 0 71 76" version="1.1" xmlns="http://www.w3.org/2000/svg" xmlns:xlink="http://www.w3.org/1999/xlink">
    <!-- Generator: Sketch 46.2 (44496) - http://www.bohemiancoding.com/sketch -->
    <title>king_icon2</title>
    <desc>Created with Sketch.</desc>
    <defs></defs>
    <g id="效果图" stroke="none" stroke-width="1" fill="none" fill-rule="evenodd">
        <g id="11_王者荣耀专区_1首页-copy" transform="translate(-251.000000, -1923.000000)">
            <g id="购买流程" transform="translate(0.000000, 1804.000000)">
                <g id="标题" transform="translate(37.000000, 40.000000)">
                    <g id="Group-3-Copy" transform="translate(190.333333, 76.000000)">
                        <g id="king_icon2" transform="translate(15.666667, 0.000000)">
                            <path d="M40.1115421,74 L40.1115421,77 L13.9166667,77 C10.8657194,77 8.33333333,74.3446825 8.33333333,71 L8.33333333,9 C8.33333333,5.65531745 10.8657194,3 13.9166667,3 L65.4166667,3 C68.4676139,3 71,5.65531745 71,9 L71,44.3857422 L68,44.3857422 L40.1115421,74 Z M68,10 C68,6.65531745 67.4676139,6 64.4166667,6 L14.9166667,6 C11.8657194,6 11.3333333,7.65531745 11.3333333,11 L11.3333333,69 C11.3333333,72.3446825 11.8657194,74 14.9166667,74 L40.1115421,74 L68,44.3857422 L68,10 Z" id="Rectangle-7" fill="#C7A26F" fill-rule="nonzero"></path>
                            <path d="M45.5,68.5 L54.5,77.5" id="Line-6-Copy-3" stroke="#C7A26F" stroke-width="3" stroke-linecap="round" stroke-linejoin="round"></path>
                            <path d="M55.5,55.5 L78,77" id="Line-6-Copy-2" stroke="#C7A26F" stroke-width="3" stroke-linecap="round" stroke-linejoin="round" transform="translate(66.500000, 66.000000) scale(-1, 1) translate(-66.500000, -66.000000) "></path>
                            <path d="M19,19.5 L59,19.5" id="Line-8" stroke="#C7A26F" stroke-width="3" stroke-linecap="round" stroke-linejoin="round"></path>
                            <path d="M19,35.25 L59,35.25" id="Line-8-Copy" stroke="#C7A26F" stroke-width="3" stroke-linecap="round" stroke-linejoin="round"></path>
                            <path d="M19,51.5 L41.5,51.5" id="Line-8-Copy-2" stroke="#C7A26F" stroke-width="3" stroke-linecap="round" stroke-linejoin="round"></path>
                        </g>
                    </g>
                </g>
            </g>
        </g>
    </g>
</svg>