<?xml version="1.0" encoding="UTF-8"?>
<svg width="81px" height="80px" viewBox="0 0 81 80" version="1.1" xmlns="http://www.w3.org/2000/svg" xmlns:xlink="http://www.w3.org/1999/xlink">
    <!-- Generator: Sketch 46.2 (44496) - http://www.bohemiancoding.com/sketch -->
    <title>king_icon4</title>
    <desc>Created with Sketch.</desc>
    <defs></defs>
    <g id="效果图" stroke="none" stroke-width="1" fill="none" fill-rule="evenodd">
        <g id="11_王者荣耀专区_1首页-copy" transform="translate(-623.000000, -1920.000000)" stroke="#C7A26F" stroke-width="3">
            <g id="购买流程" transform="translate(0.000000, 1804.000000)">
                <g id="标题" transform="translate(37.000000, 40.000000)">
                    <g id="Group-3-Copy-3" transform="translate(571.000000, 76.000000)">
                        <g id="king_icon4" transform="translate(15.666667, 0.000000)">
                            <circle id="Oval-2" cx="40" cy="40" r="38.5"></circle>
                            <g id="Group-9" transform="translate(18.000000, 26.000000)" stroke-linecap="round">
                                <path d="M14,7.5 C14,3.35786438 10.8659932,0 7,0 C3.13400675,0 0,3.35786438 0,7.5" id="Oval-3"></path>
                                <path d="M44,8 C44,3.581722 40.8659932,0 37,0 C33.1340068,0 30,3.581722 30,8" id="Oval-3-Copy"></path>
                            </g>
                            <path d="M26,47 C26,54.7319865 32.2680135,61 40,61 L40,61 C47.7319865,61 54,54.7319865 54,47" id="Oval-4" stroke-linecap="round" stroke-linejoin="round"></path>
                        </g>
                    </g>
                </g>
            </g>
        </g>
    </g>
</svg>