<?xml version="1.0" encoding="UTF-8"?>
<svg width="542px" height="238px" viewBox="0 0 542 238" version="1.1" xmlns="http://www.w3.org/2000/svg" xmlns:xlink="http://www.w3.org/1999/xlink">
    <!-- Generator: Sketch 46.2 (44496) - http://www.bohemiancoding.com/sketch -->
    <title>sp_liucheng</title>
    <desc>Created with Sketch.</desc>
    <defs></defs>
    <g id="效果图" stroke="none" stroke-width="1" fill="none" fill-rule="evenodd">
        <g id="04_商品列表_8交易说明" transform="translate(-172.000000, -1059.000000)">
            <g id="title-bar">
                <g id="商品详情" transform="translate(0.000000, 930.000000)">
                    <g id="信息" transform="translate(0.000000, 89.000000)">
                        <g id="sp_liucheng" transform="translate(172.000000, 40.000000)">
                            <g id="Group-3" transform="translate(226.000000, 0.000000)">
                                <path d="M308,12.1579562 L308,5 C308,2.23857625 305.761424,-5.07265313e-16 303,0 L5,0 L5,0 C2.23857625,5.07265313e-16 -1.2263553e-15,2.23857625 -8.8817842e-16,5 L0,5 L0,35 C3.38176876e-16,37.7614237 2.23857625,40 5,40 L303,40 C305.761424,40 308,37.7614237 308,35 L308,29.6410337 C308.110887,29.5678157 308.216088,29.4823966 308.313708,29.3847763 L308.313708,29.3847763 L315.384776,22.3137085 C316.165825,21.5326599 316.165825,20.26633 315.384776,19.4852814 L308.313708,12.4142136 C308.216088,12.3165932 308.110887,12.2311741 308,12.1579562 Z" id="Combined-Shape" fill="#09C7D1" transform="translate(157.985281, 20.000000) scale(-1, 1) translate(-157.985281, -20.000000) "></path>
                                <text id="确认订单信息，提交订单" font-family="PingFangSC-Regular, PingFang SC" font-size="26" font-weight="normal" line-spacing="26" fill="#FFFFFF">
                                    <tspan x="17" y="31">确认订单信息，提交订单</tspan>
                                </text>
                            </g>
                            <path d="M172,209.157956 L172,202 C172,199.238576 169.761424,197 167,197 L38,197 L38,197 C35.2385763,197 33,199.238576 33,202 L33,202 L33,232 C33,234.761424 35.2385763,237 38,237 L167,237 C169.761424,237 172,234.761424 172,232 L172,226.641034 C172.110887,226.567816 172.216088,226.482397 172.313708,226.384776 L172.313708,226.384776 L179.384776,219.313708 C180.165825,218.53266 180.165825,217.26633 179.384776,216.485281 L172.313708,209.414214 C172.216088,209.316593 172.110887,209.231174 172,209.157956 Z" id="Combined-Shape-Copy-3" fill="#09C7D1"></path>
                            <g id="Group-4" transform="translate(0.000000, 66.000000)">
                                <path d="M8.97056275,29.7574808 L8.97056275,35 C8.97056275,37.7614237 11.209139,40 13.9705627,40 L174.171573,40 L174.171573,40 C176.932997,40 179.171573,37.7614237 179.171573,35 L179.171573,5 L179.171573,5 C179.171573,2.23857625 176.932997,1.39544373e-15 174.171573,8.8817842e-16 L174.171573,0 L13.9705627,0 L13.9705627,8.8817842e-16 C11.209139,3.80913106e-16 8.97056275,2.23857625 8.97056275,5 L8.97056275,12.0415091 C8.7849364,12.1349874 8.61083544,12.2592222 8.45584412,12.4142136 L1.38477631,19.4852814 L1.38477631,19.4852814 C0.603727727,20.26633 0.603727727,21.5326599 1.38477631,22.3137085 L8.45584412,29.3847763 L8.45584412,29.3847763 C8.61083544,29.5397676 8.7849364,29.6640025 8.97056275,29.7574808 Z" id="Combined-Shape" fill="#09C7D1" transform="translate(89.985281, 20.000000) scale(-1, 1) translate(-89.985281, -20.000000) "></path>
                                <text id="选择支付方式" font-family="PingFangSC-Regular, PingFang SC" font-size="26" font-weight="normal" fill="#FFFFFF">
                                    <tspan x="7" y="29">选择支付方式</tspan>
                                </text>
                            </g>
                            <g id="Group-5" transform="translate(226.000000, 132.000000)">
                                <path d="M176,12.1579562 L176,5 C176,2.23857625 173.761424,-5.07265313e-16 171,0 L5,0 L5,0 C2.23857625,5.07265313e-16 6.24939431e-13,2.23857625 6.25277607e-13,5 L6.25277607e-13,5 L6.25277607e-13,35 C6.25615784e-13,37.7614237 2.23857625,40 5,40 L171,40 C173.761424,40 176,37.7614237 176,35 L176,29.6410337 C176.110887,29.5678157 176.216088,29.4823966 176.313708,29.3847763 L176.313708,29.3847763 L183.384776,22.3137085 C184.165825,21.5326599 184.165825,20.26633 183.384776,19.4852814 L176.313708,12.4142136 C176.216088,12.3165932 176.110887,12.2311741 176,12.1579562 Z" id="Combined-Shape-Copy-2" fill="#09C7D1" transform="translate(91.985281, 20.000000) scale(-1, 1) translate(-91.985281, -20.000000) "></path>
                                <text id="联系客服取货" font-family="PingFangSC-Regular, PingFang SC" font-size="26" font-weight="normal" line-spacing="26" fill="#FFFFFF">
                                    <tspan x="19" y="31">联系客服取货</tspan>
                                </text>
                            </g>
                            <g id="Group-6" transform="translate(226.000000, 198.000000)">
                                <path d="M8.17157288,29.7574808 L8.17157288,35 C8.17157288,37.7614237 10.4101491,40 13.1715729,40 L200,40 C202.761424,40 205,37.7614237 205,35 L205,5 C205,2.23857625 202.761424,-3.80913106e-16 200,-8.8817842e-16 L200,0 L13.1715729,0 L13.1715729,-8.8817842e-16 C10.4101491,-1.39544373e-15 8.17157288,2.23857625 8.17157288,5 L8.17157288,12.0415091 C7.98594652,12.1349874 7.81184557,12.2592222 7.65685425,12.4142136 L0.585786438,19.4852814 L0.585786438,19.4852814 C-0.195262146,20.26633 -0.195262146,21.5326599 0.585786438,22.3137085 L7.65685425,29.3847763 L7.65685425,29.3847763 C7.81184557,29.5397676 7.98594652,29.6640025 8.17157288,29.7574808 Z" id="Combined-Shape-Copy" fill="#999999"></path>
                                <text id="交易取消，退款" font-family="PingFangSC-Regular, PingFang SC" font-size="26" font-weight="normal" fill="#FFFFFF">
                                    <tspan x="16" y="30">交易取消，退款</tspan>
                                </text>
                            </g>
                            <text id="交易成功-copy" font-family="PingFangSC-Regular, PingFang SC" font-size="26" font-weight="normal" line-spacing="26" fill="#FFFFFF">
                                <tspan x="50" y="228">交易成功</tspan>
                            </text>
                            <path d="M203,7.5 L203,233" id="Line-5" stroke="#09C7D1" stroke-width="2" stroke-linecap="square"></path>
                            <g id="Group-2" transform="translate(190.000000, 5.000000)">
                                <circle id="Oval" stroke="#09C7D1" stroke-width="2" fill="#FFFFFF" cx="13" cy="15" r="13"></circle>
                                <text id="1" font-family="PingFangSC-Regular, PingFang SC" font-size="24" font-weight="normal" line-spacing="24" fill="#09C7D1">
                                    <tspan x="8" y="25">1</tspan>
                                </text>
                            </g>
                            <g id="Group-2-Copy-2" transform="translate(190.000000, 139.000000)">
                                <circle id="Oval" stroke="#09C7D1" stroke-width="2" fill="#FFFFFF" cx="13" cy="15" r="13"></circle>
                                <text id="3" font-family="PingFangSC-Regular, PingFang SC" font-size="24" font-weight="normal" line-spacing="24" fill="#09C7D1">
                                    <tspan x="6" y="25">3</tspan>
                                </text>
                            </g>
                            <g id="Group-2-Copy" transform="translate(190.000000, 71.000000)">
                                <circle id="Oval" stroke="#09C7D1" stroke-width="2" fill="#FFFFFF" cx="13" cy="15" r="13"></circle>
                                <text id="2" font-family="PingFangSC-Regular, PingFang SC" font-size="24" font-weight="normal" line-spacing="24" fill="#09C7D1">
                                    <tspan x="6" y="25">2</tspan>
                                </text>
                            </g>
                            <g id="Group-2-Copy-3" transform="translate(190.000000, 206.000000)">
                                <circle id="Oval" stroke="#09C7D1" stroke-width="2" fill="#FFFFFF" cx="13" cy="14" r="13"></circle>
                                <text id="4" font-family="PingFangSC-Regular, PingFang SC" font-size="24" font-weight="normal" line-spacing="24" fill="#09C7D1">
                                    <tspan x="5" y="25">4</tspan>
                                </text>
                            </g>
                        </g>
                    </g>
                </g>
            </g>
        </g>
    </g>
</svg>