<?xml version="1.0" standalone="no"?><!DOCTYPE svg PUBLIC "-//W3C//DTD SVG 1.1//EN" "http://www.w3.org/Graphics/SVG/1.1/DTD/svg11.dtd"><svg t="1511849351443" class="icon" style="" viewBox="0 0 1024 1024" version="1.1" xmlns="http://www.w3.org/2000/svg" p-id="1002" xmlns:xlink="http://www.w3.org/1999/xlink" width="200" height="200"><defs><style type="text/css"></style></defs><path d="M754.195599 890.276393 283.474748 890.276393 283.474748 348.936157 330.546833 348.936157 330.546833 843.204307 707.123514 843.204307 707.123514 348.936157 754.195599 348.936157Z" p-id="1003" fill="#bfbfbf"></path><path d="M236.402663 254.791987l564.865022 0 0 47.072085-564.865022 0 0-47.072085Z" p-id="1004" fill="#bfbfbf"></path><path d="M636.515387 301.864072l-235.360426 0 0-164.752298 235.360426 0L636.515387 301.864072zM448.227046 254.791987l141.216255 0 0-70.608128-141.216255 0L448.227046 254.791987z" p-id="1005" fill="#bfbfbf"></path><path d="M424.691003 419.544285l47.072085 0 0 329.504596-47.072085 0 0-329.504596Z" p-id="1006" fill="#bfbfbf"></path><path d="M565.907259 419.544285l47.072085 0 0 329.504596-47.072085 0 0-329.504596Z" p-id="1007" fill="#bfbfbf"></path></svg>