<?xml version="1.0" encoding="UTF-8"?>
<svg width="41px" height="42px" viewBox="0 0 41 42" version="1.1" xmlns="http://www.w3.org/2000/svg" xmlns:xlink="http://www.w3.org/1999/xlink">
    <!-- Generator: Sketch 46.2 (44496) - http://www.bohemiancoding.com/sketch -->
    <title>grzx_zh</title>
    <desc>Created with Sketch.</desc>
    <defs></defs>
    <g id="标注" stroke="none" stroke-width="1" fill="none" fill-rule="evenodd">
        <g id="个人中心_买家中心" transform="translate(-30.000000, -731.000000)" stroke-width="3" stroke="#CCCCCC">
            <g id="列表" transform="translate(-1.000000, 701.000000)">
                <g id="列表-copy-5">
                    <g id="grzx_zh" transform="translate(30.000000, 30.000000)">
                        <path d="M25.2745528,40.0920109 C23.972653,40.36252 22.6391194,40.5 21.2887872,40.5 C19.9384551,40.5 18.6049215,40.36252 17.3030217,40.0920109 L15.890474,39.7985113 L16.1287789,38.3756115 C16.1685934,38.1378823 16.1887872,37.8955421 16.1887872,37.65 C16.1887872,35.2475613 14.2412259,33.3 11.8387872,33.3 C10.7899858,33.3 9.80238859,33.6705214 9.02075556,34.3360587 L7.92257145,35.2711299 L6.94519878,34.2104183 C5.11320059,32.2222086 3.70911067,29.8738589 2.83274464,27.3099571 L2.38383215,25.996616 L3.65844005,25.4472873 C5.24168427,24.7649429 6.28878725,23.2038626 6.28878725,21.45 C6.28878725,19.6233008 5.15247909,18.0102592 3.47140021,17.3772387 L2.17261447,16.888173 L2.55944834,15.5553604 C3.40076321,12.6566613 4.90684181,10.0017461 6.94519878,7.7895817 L7.92257145,6.72887006 L9.02075556,7.66394127 C9.80238859,8.32947861 10.7899858,8.7 11.8387872,8.7 C14.2412259,8.7 16.1887872,6.75243866 16.1887872,4.35 C16.1887872,4.1044579 16.1685934,3.86211774 16.1287789,3.62438847 L15.890474,2.20148871 L17.3030217,1.90798913 C18.6049215,1.63748 19.9384551,1.5 21.2887872,1.5 C22.6391194,1.5 23.972653,1.63748 25.2745528,1.90798913 L26.6871005,2.20148871 L26.4487956,3.62438847 C26.4089811,3.86211774 26.3887872,4.1044579 26.3887872,4.35 C26.3887872,6.75243866 28.3363486,8.7 30.7387872,8.7 C31.7875887,8.7 32.7751859,8.32947861 33.5568189,7.66394127 L34.6550031,6.72887006 L35.6323757,7.7895817 C37.6707327,10.0017461 39.1768113,12.6566613 40.0181262,15.5553604 L40.40496,16.888173 L39.1061743,17.3772387 C37.4250954,18.0102592 36.2887872,19.6233008 36.2887872,21.45 C36.2887872,23.2038626 37.3358902,24.7649429 38.9191345,25.4472873 L40.1937423,25.996616 L39.7448299,27.3099571 C38.8684638,29.8738589 37.4643739,32.2222086 35.6323757,34.2104183 L34.6550031,35.2711299 L33.5568189,34.3360587 C32.7751859,33.6705214 31.7875887,33.3 30.7387872,33.3 C28.3363486,33.3 26.3887872,35.2475613 26.3887872,37.65 C26.3887872,37.8955421 26.4089811,38.1378823 26.4487956,38.3756115 L26.6871005,39.7985113 L25.2745528,40.0920109 Z" id="Combined-Shape" stroke-linecap="round" stroke-linejoin="round"></path>
                        <circle id="Oval-2" cx="21" cy="21" r="6"></circle>
                    </g>
                </g>
            </g>
        </g>
    </g>
</svg>