<?xml version="1.0" encoding="UTF-8"?>
<svg width="750px" height="300px" viewBox="0 0 750 300" version="1.1" xmlns="http://www.w3.org/2000/svg" xmlns:xlink="http://www.w3.org/1999/xlink">
    <!-- Generator: Sketch 46.2 (44496) - http://www.bohemiancoding.com/sketch -->
    <title>grzx_bg</title>
    <desc>Created with Sketch.</desc>
    <defs>
        <rect id="path-1" x="0" y="0" width="750" height="300"></rect>
        <circle id="path-3" cx="375" cy="-2202" r="2500"></circle>
    </defs>
    <g id="标注" stroke="none" stroke-width="1" fill="none" fill-rule="evenodd">
        <g id="个人中心_买家中心">
            <g id="头像部分">
                <g id="grzx_bg">
                    <mask id="mask-2" fill="white">
                        <use xlink:href="#path-1"></use>
                    </mask>
                    <use id="Mask" fill="#FFFFFF" xlink:href="#path-1"></use>
                    <mask id="mask-4" fill="white">
                        <use xlink:href="#path-3"></use>
                    </mask>
                    <use id="Mask" fill="#09C7D1" xlink:href="#path-3"></use>
                    <path d="M454.410113,222.628194 L597.177029,339.845097 C604.839388,346.136176 605.846182,357.322544 599.425767,364.830548 C598.790073,365.573926 598.093222,366.264959 597.342224,366.896698 L458.55217,483.646744 C451.371643,489.686995 440.654534,489.287787 433.962742,482.730798 L312.585808,363.798949 C305.517092,356.872629 305.517092,345.642846 312.585808,338.716526 L429.985879,223.681427 C436.618834,217.18209 447.220111,216.724937 454.410113,222.628194 Z" id="Rectangle-27-Copy" fill="#0EC3CC" opacity="0.648324275" mask="url(#mask-4)"></path>
                    <path d="M454.433085,224.901303 L543.537404,338.675576 C548.436613,344.93121 548.532536,353.605006 543.772822,359.963197 L459.161232,472.990289 C453.248608,480.888577 441.921016,482.594832 433.860349,476.801314 C432.79868,476.038251 431.82515,475.16396 430.957043,474.19396 L321.972632,352.417811 C315.743134,345.457143 316.025454,334.972479 322.620883,328.343373 L427.112565,223.318159 C434.090795,216.304297 445.550521,216.161456 452.708578,222.999113 C453.329148,223.591905 453.905466,224.227604 454.433085,224.901303 Z" id="Rectangle-27" fill="#24D2DB" opacity="0.648324275" mask="url(#mask-4)"></path>
                    <path d="M671.362175,201.504618 L782.06027,288.289708 C788.001483,292.947499 788.782127,301.229666 783.803888,306.788445 C783.310986,307.338827 782.770665,307.850455 782.188358,308.318182 L674.573828,394.75762 C669.006217,399.229703 660.696424,398.934137 655.507766,394.079471 L561.394958,306.024669 C555.914042,300.896558 555.914042,292.582247 561.394958,287.454136 L652.424201,202.284411 C657.567237,197.47243 665.787217,197.133963 671.362175,201.504618 Z" id="Rectangle-27-Copy" fill="#0EC3CC" opacity="0.648324275" mask="url(#mask-4)"></path>
                    <path d="M671.379987,203.187583 L740.469371,287.423818 C744.268103,292.055366 744.342479,298.477274 740.651909,303.184754 L675.046081,386.86779 C670.461571,392.715528 661.678424,393.978805 655.428373,389.689398 C654.60518,389.124441 653.850328,388.477133 653.177218,387.758965 L568.673279,297.598298 C563.843074,292.444756 564.061978,284.682117 569.175918,279.774058 L650.1963,202.015454 C655.607056,196.822529 664.492656,196.716772 670.042845,201.779239 C670.52402,202.218131 670.970883,202.688789 671.379987,203.187583 Z" id="Rectangle-27" fill="#24D2DB" opacity="0.648324275" mask="url(#mask-4)"></path>
                    <path d="M466.756625,222.433467 L671.766999,204.353844 L671.766999,204.353844 C682.76999,203.383503 692.476293,211.516573 693.446634,222.519564 C693.542709,223.608985 693.549264,224.70445 693.466233,225.794943 L678.121507,427.325901 L678.121507,427.325901 C677.327623,437.752429 668.635938,445.807481 658.179231,445.807481 L468.513582,445.807481 L468.513582,445.807481 C457.467887,445.807481 448.513582,436.853176 448.513582,425.807481 L448.513582,242.356145 L448.513582,242.356145 C448.513582,231.991378 456.431929,223.34399 466.756625,222.433467 Z" id="Rectangle-27-Copy" fill="#0EC3CC" mask="url(#mask-4)" transform="translate(571.018769, 325.041391) rotate(-315.000000) translate(-571.018769, -325.041391) "></path>
                    <path d="M466.92174,212.88259 L627.260019,233.984954 L627.260019,233.984954 C636.075875,235.145223 643.067055,241.986512 644.418088,250.775155 L668.434879,407.007445 L668.434879,407.007445 C670.113163,417.924897 662.623338,428.135757 651.705886,429.814041 C650.267951,430.035088 648.810189,430.09858 647.35848,430.00339 L465.107251,418.053044 L465.107251,418.053044 C454.689856,417.369968 446.550267,408.789221 446.417474,398.350299 L444.313633,232.96599 L444.313633,232.96599 C444.173133,221.921188 453.012816,212.85371 464.057617,212.71321 C465.015149,212.701029 465.972318,212.757635 466.92174,212.88259 Z" id="Rectangle-27" fill="#24D2DB" mask="url(#mask-4)" transform="translate(556.490939, 321.378920) rotate(-315.000000) translate(-556.490939, -321.378920) "></path>
                </g>
            </g>
        </g>
    </g>
</svg>