<?xml version="1.0" encoding="UTF-8"?>
<svg width="38px" height="43px" viewBox="0 0 38 43" version="1.1" xmlns="http://www.w3.org/2000/svg" xmlns:xlink="http://www.w3.org/1999/xlink">
    <!-- Generator: Sketch 46.2 (44496) - http://www.bohemiancoding.com/sketch -->
    <title>grzx_yj</title>
    <desc>Created with Sketch.</desc>
    <defs></defs>
    <g id="标注" stroke="none" stroke-width="1" fill="none" fill-rule="evenodd">
        <g id="个人中心_买家中心" transform="translate(-31.000000, -1139.000000)">
            <g id="列表" transform="translate(-1.000000, 701.000000)">
                <g id="列表-copy-4" transform="translate(0.000000, 408.000000)">
                    <g id="Group-4" transform="translate(30.000000, 27.000000)">
                        <g id="grzx_yj" transform="translate(0.000000, 3.000000)">
                            <path d="M38,11.9355469 L38,36.3571429 C38,38.9213221 35.7614237,41 33,41 L9,41 C6.23857625,41 4,38.9213221 4,36.3571429 L4,6.64285714 C4,4.07867795 6.23857625,2 9,2 L26.6679688,2" id="Rectangle-21" stroke="#CCCCCC" stroke-width="3"></path>
                            <path d="M10.5,16.5 L20.5,16.5" id="Line-11" stroke="#CCCCCC" stroke-width="3" stroke-linecap="round" stroke-linejoin="round"></path>
                            <path d="M10.5,26.5 L29.6049732,26.5" id="Line-11-Copy-3" stroke="#CCCCCC" stroke-width="3" stroke-linecap="round" stroke-linejoin="round"></path>
                            <path d="M28,17.5453921 L36.5,2.5" id="Line-11-Copy-4" stroke="#CCCCCC" stroke-width="3" stroke-linejoin="round"></path>
                            <polygon id="Triangle" fill="#CCCCCC" transform="translate(27.467654, 18.478181) rotate(-150.000000) translate(-27.467654, -18.478181) " points="27.4589964 17.3688476 28.9693353 19.5828251 25.9659733 19.5875147"></polygon>
                            <circle id="Oval-6" fill="#CCCCCC" cx="36.5" cy="2.5" r="1.5"></circle>
                        </g>
                    </g>
                </g>
            </g>
        </g>
    </g>
</svg>