<?xml version="1.0" encoding="UTF-8"?>
<svg width="40px" height="40px" viewBox="0 0 40 40" version="1.1" xmlns="http://www.w3.org/2000/svg" xmlns:xlink="http://www.w3.org/1999/xlink">
    <!-- Generator: Sketch 46.2 (44496) - http://www.bohemiancoding.com/sketch -->
    <title>grzx_bz</title>
    <desc>Created with Sketch.</desc>
    <defs></defs>
    <g id="标注" stroke="none" stroke-width="1" fill="none" fill-rule="evenodd">
        <g id="个人中心_买家中心" transform="translate(-30.000000, -937.000000)">
            <g id="列表" transform="translate(-1.000000, 701.000000)">
                <g id="列表-copy-2" transform="translate(0.000000, 204.000000)">
                    <g id="Group-4" transform="translate(30.000000, 27.000000)">
                        <g id="grzx_bz" transform="translate(0.000000, 3.000000)">
                            <path d="M4.8015326,39.095255 C10.1185195,37.0763619 12.8440862,36.5702966 15.725016,36.8552591 C16.0765936,36.8900348 16.4343651,36.9349426 16.8879213,36.9990315 C17.0751413,37.0254862 17.8600697,37.1403078 18.0690269,37.1698797 C19.1663065,37.325168 20.0450113,37.4195112 21.0835193,37.4774246 C31.0506532,38.0332521 39.5,30.0574058 39.5,20.5 C39.5,11.1384087 31.2422609,3.5 21,3.5 C10.7577391,3.5 2.5,11.1384087 2.5,20.5 C2.5,24.5589528 3.28399205,26.6692425 5.82756605,29.3816558 C7.05002855,30.6852638 6.81830635,32.4410823 5.73097729,36.0365845 C5.66509916,36.2544257 5.59555046,36.4805084 5.51053278,36.7539796 C5.14972783,37.9145591 4.93567055,38.6120723 4.8015326,39.095255 Z" id="Combined-Shape" stroke="#CCCCCC" stroke-width="3"></path>
                            <text id="?" font-family="PingFangTC-Medium, PingFang TC" font-size="26" font-weight="400" line-spacing="26" fill="#CCCCCC">
                                <tspan x="14" y="30">?</tspan>
                            </text>
                        </g>
                    </g>
                </g>
            </g>
        </g>
    </g>
</svg>