<?xml version="1.0" encoding="UTF-8"?>
<svg width="130px" height="42px" viewBox="0 0 130 42" version="1.1" xmlns="http://www.w3.org/2000/svg" xmlns:xlink="http://www.w3.org/1999/xlink">
    <!-- Generator: Sketch 46.2 (44496) - http://www.bohemiancoding.com/sketch -->
    <title>home_logo</title>
    <desc>Created with Sketch.</desc>
    <defs></defs>
    <g id="标注" stroke="none" stroke-width="1" fill="none" fill-rule="evenodd">
        <g id="首页展开" transform="translate(-20.000000, -67.000000)">
            <g id="title-bar-" transform="translate(-1453.000000, 0.000000)">
                <g id="home_logo" transform="translate(1473.000000, 67.000000)">
                    <path d="M71.2582742,26.3421938 C71.5865163,26.0175795 71.736386,25.6038555 71.736386,25.1010217 L71.736386,8.23199291 C71.736386,7.7291591 71.5865163,7.31543507 71.2582742,7.01991791 C70.930032,6.69530368 70.5116842,6.51799338 70.0032306,6.51799338 L55.5440255,6.51799338 C55.1854416,6.51799338 54.9169634,6.37068944 54.7082492,6.10426936 C54.5289573,5.83875855 54.4986156,5.51323503 54.6181435,5.21771787 L55.4244975,3.03180017 C55.6341312,2.52987564 56.172007,2.26345555 56.6795411,2.47077221 L56.7687273,2.49986928 C57.3066031,2.67717958 57.5456591,3.23820754 57.3369449,3.77013843 L57.0675472,4.50938597 L70.0032306,4.50938597 C71.5865163,4.50938597 72.8719016,5.39502817 73.468622,6.78350418 C73.6479139,7.25633164 73.7674419,7.70006202 73.7674419,8.23199291 L73.7674419,25.1010217 C73.7674419,25.6329526 73.6479139,26.1057801 73.468622,26.5486011 C73.0806158,27.4351526 72.3937898,28.1143875 71.4669884,28.5281115 C71.1084045,28.6763247 70.7203984,28.7645252 70.3323922,28.7945316 C70.0335723,28.8236286 69.7641747,28.7354281 69.5858022,28.5581178 C69.3467463,28.3508012 69.2566406,28.1143875 69.2566406,27.8197796 L69.2566406,27.7897732 C69.2566406,27.2878487 69.6749885,26.8441183 70.1825226,26.8150212 C70.6008704,26.7850149 70.989796,26.6377109 71.2582742,26.3421938 L71.2582742,26.3421938 Z M69.4359325,24.6281942 C69.4359325,26.3421938 68.0015971,27.7606761 66.2693611,27.7606761 L58.0835349,27.7606761 C56.3209572,27.7606761 54.9169634,26.3421938 54.9169634,24.6281942 L54.9169634,20.3154623 C54.9169634,19.7835314 55.3353113,19.339801 55.9026094,19.339801 L55.9623733,19.339801 C56.4708269,19.339801 56.9480193,19.7835314 56.9480193,20.3154623 L56.9480193,24.6281942 C56.9480193,24.9237114 57.038125,25.1901315 57.2771809,25.3965389 C57.4858951,25.662959 57.7552927,25.7511595 58.0835349,25.7511595 L61.1903423,25.7511595 L61.1903423,25.7220624 L61.1903423,17.3602907 L55.4548392,17.3602907 C54.9169634,17.3602907 54.4691933,16.9474759 54.4691933,16.3855387 L54.4691933,16.3564416 C54.4691933,15.8245107 54.9169634,15.3816896 55.4548392,15.3816896 L61.1903423,15.3816896 L61.1903423,11.5999793 L56.1416653,11.5999793 C55.8134231,11.5999793 55.5146032,11.451766 55.3353113,11.1862552 C55.1256776,10.8907381 55.0962554,10.5952209 55.2157833,10.2706067 L55.9329511,8.37929685 C56.0819013,7.90646939 56.6501188,7.64095859 57.1576529,7.81826889 L57.2174169,7.81826889 C57.724951,7.99557918 57.9943486,8.55660714 57.8150567,9.05853168 L57.6357647,9.59046256 L68.3004169,9.59046256 C68.8382928,9.59046256 69.2860629,10.0041866 69.2860629,10.5361175 L69.2860629,10.624318 C69.2860629,11.1862552 68.8382928,11.5999793 68.3004169,11.5999793 L63.1625536,11.5999793 L63.1625536,15.3816896 L68.8980567,15.3816896 C69.4359325,15.3816896 69.8837027,15.8245107 69.8837027,16.3564416 L69.8837027,16.3855387 C69.8837027,16.9474759 69.4359325,17.3602907 68.8980567,17.3602907 L63.1625536,17.3602907 L63.1625536,25.7220624 L63.1625536,25.7511595 L66.2693611,25.7511595 C66.5976033,25.7511595 66.8670009,25.662959 67.0757151,25.3965389 C67.314771,25.1901315 67.4048767,24.9237114 67.4048767,24.6281942 L67.4048767,20.3154623 C67.4048767,19.7835314 67.8526468,19.339801 68.3905226,19.339801 L68.4502866,19.339801 C69.0175847,19.339801 69.4359325,19.7835314 69.4359325,20.3154623 L69.4359325,24.6281942 Z M51.7798142,15.3225862 C51.7798142,15.8536078 51.3623858,16.2973382 50.7941683,16.2973382 C50.2268702,16.2973382 49.8085224,15.8536078 49.8085224,15.3225862 L49.8085224,11.6881798 C49.8085224,11.1562489 50.2268702,10.7134278 50.7941683,10.7134278 C51.3623858,10.7134278 51.7798142,11.1562489 51.7798142,11.6881798 L51.7798142,15.3225862 Z M51.7798142,7.13812477 C51.7798142,7.67005566 51.3623858,8.11378605 50.7941683,8.11378605 C50.2268702,8.11378605 49.8085224,7.67005566 49.8085224,7.13812477 L49.8085224,3.5337247 C49.8085224,3.00179381 50.2268702,2.55897272 50.7941683,2.55897272 C51.3623858,2.55897272 51.7798142,3.00179381 51.7798142,3.5337247 L51.7798142,7.13812477 Z M49.0315907,27.9079801 C48.7631125,28.3808075 48.1654727,28.5581178 47.6579386,28.2626007 C47.209249,27.9970899 47.0299571,27.4060556 47.269013,26.9623252 L51.5113361,19.3989044 C51.7798142,18.926077 52.4077957,18.749676 52.8555659,19.0151868 L52.8859076,19.0451931 C53.3934417,19.2816069 53.5423919,19.9017383 53.2739137,20.3745657 L49.0315907,27.9079801 Z" id="Fill-1" fill="#444444"></path>
                    <path d="M94.3366363,11.0102529 C94.1527951,11.2143849 93.9076735,11.3012306 93.6323831,11.3012306 C93.3259811,11.3012306 93.0808595,11.2430351 92.8970183,11.0397984 L92.8659067,11.0102529 C92.4680555,10.6324296 92.4680555,10.0504743 92.8357379,9.67175567 C93.6936635,8.79971799 94.5204775,7.86858946 95.2860111,6.8792654 C96.0524874,5.86129124 96.7869094,4.81377164 97.430825,3.6507563 C97.7061154,3.15564661 98.2887506,3.01060544 98.8091626,3.24338757 L98.870443,3.27203768 C99.3606862,3.50481981 99.5445274,4.08677514 99.2682942,4.58098951 C97.8899566,6.93746094 96.2664974,9.03250012 94.3366363,11.0102529 L94.3366363,11.0102529 Z M83.9830772,9.67175567 C84.319648,10.0791244 84.2583676,10.6906252 83.799236,10.9816028 L83.7379556,11.0397984 C83.278824,11.3594261 82.6349085,11.2716852 82.2983377,10.8356663 L77.5806897,4.61053494 C77.2441189,4.17362078 77.3355681,3.59256077 77.7956425,3.27203768 L77.8569229,3.24338757 C78.2858857,2.92286448 78.9288585,3.01060544 79.2654293,3.44662428 L83.9830772,9.67175567 Z M89.343698,27.7374397 C89.343698,28.2316541 88.9147352,28.6972184 88.3330428,28.6972184 L88.3019312,28.6972184 C87.7504076,28.6972184 87.291276,28.2316541 87.291276,27.7374397 L87.291276,14.7920673 L75.9883422,14.7920673 C75.4368186,14.7920673 74.9767442,14.3560484 74.9767442,13.8322886 L74.9767442,13.8027432 C74.9767442,13.2503333 75.4368186,12.8429646 75.9883422,12.8429646 L87.291276,12.8429646 L87.291276,3.35977864 C87.291276,2.83601884 87.7504076,2.4 88.3019312,2.4 L88.3330428,2.4 C88.9147352,2.4 89.343698,2.83601884 89.343698,3.35977864 L89.343698,12.8429646 L100.646632,12.8429646 C101.198155,12.8429646 101.627118,13.2503333 101.627118,13.8027432 L101.627118,13.8322886 C101.627118,14.3560484 101.198155,14.7920673 100.646632,14.7920673 L93.3561499,14.7920673 L103.807758,27.2727708 C104.145271,27.6792442 104.02271,28.3193951 103.562636,28.6103727 L103.501356,28.6399181 C103.072393,28.9308958 102.460532,28.8145047 102.123018,28.3775906 L91.1509983,15.1698906 C91.0586063,15.0534995 90.9973259,14.9371084 90.9671571,14.7920673 L89.343698,14.7920673 L89.343698,27.7374397 Z" id="Fill-3" fill="#444444"></path>
                    <path d="M126.875916,26.2494439 C127.205501,25.9260871 127.355984,25.5139659 127.355984,25.01308 L127.355984,8.20940029 C127.355984,7.70851441 127.205501,7.29639311 126.875916,7.00202076 C126.545408,6.67866405 126.126272,6.50204064 125.615738,6.50204064 L111.097381,6.50204064 C110.73733,6.50204064 110.467753,6.35530734 110.257262,6.08991935 C110.077237,5.82543711 110.047694,5.50117464 110.167711,5.20680229 L110.977364,3.02935263 C111.187855,2.52937251 111.727008,2.26398452 112.237542,2.47049804 L112.327093,2.4994824 C112.867169,2.67610581 113.107203,3.2349604 112.897635,3.76483064 L112.627135,4.5012144 L125.615738,4.5012144 C127.205501,4.5012144 128.495222,5.3834257 129.095306,6.76652288 C129.275332,7.23751864 129.395349,7.67953005 129.395349,8.20940029 L129.395349,25.01308 C129.395349,25.5429502 129.275332,26.013946 129.095306,26.4550516 C128.705713,27.3381687 128.016077,28.0147722 127.085484,28.4268935 C126.725433,28.5745326 126.33584,28.6623914 125.946246,28.6922815 C125.646204,28.7212659 125.375704,28.633407 125.195679,28.4567836 C124.956568,28.2502701 124.866094,28.0147722 124.866094,27.7213056 L124.866094,27.6914155 C124.866094,27.1914354 125.286153,26.749424 125.795764,26.7204396 C126.215823,26.6905495 126.605416,26.5438162 126.875916,26.2494439 L126.875916,26.2494439 Z M125.046119,24.5420842 C125.046119,26.2494439 123.605916,27.6624311 121.866594,27.6624311 L113.647279,27.6624311 C111.877491,27.6624311 110.467753,26.2494439 110.467753,24.5420842 L110.467753,20.2460594 C110.467753,19.7161891 110.887813,19.2741777 111.457432,19.2741777 L111.51744,19.2741777 C112.02705,19.2741777 112.507118,19.7161891 112.507118,20.2460594 L112.507118,24.5420842 C112.507118,24.8364566 112.597593,25.1018446 112.837626,25.3074523 C113.047194,25.5728403 113.317694,25.6606991 113.647279,25.6606991 L116.766797,25.6606991 L116.766797,25.6317148 L116.766797,17.3023358 L111.00783,17.3023358 C110.467753,17.3023358 110.018151,16.8911203 110.018151,16.33136 L110.018151,16.3023756 C110.018151,15.7725054 110.467753,15.3313997 111.00783,15.3313997 L116.766797,15.3313997 L116.766797,11.5643394 L111.697465,11.5643394 C111.36788,11.5643394 111.067838,11.4167003 110.887813,11.1522181 C110.677321,10.8578457 110.647779,10.5634734 110.767796,10.2401166 L111.487897,8.35613359 C111.637457,7.88513782 112.207076,7.62065558 112.717609,7.79727899 L112.777618,7.79727899 C113.287228,7.97390241 113.556805,8.532757 113.377703,9.03273712 L113.197677,9.56260735 L123.905958,9.56260735 C124.446035,9.56260735 124.895637,9.97472865 124.895637,10.5045989 L124.895637,10.5924577 C124.895637,11.1522181 124.446035,11.5643394 123.905958,11.5643394 L118.746153,11.5643394 L118.746153,15.3313997 L124.506043,15.3313997 C125.046119,15.3313997 125.495721,15.7725054 125.495721,16.3023756 L125.495721,16.33136 C125.495721,16.8911203 125.046119,17.3023358 124.506043,17.3023358 L118.746153,17.3023358 L118.746153,25.6317148 L118.746153,25.6606991 L121.866594,25.6606991 C122.196179,25.6606991 122.466678,25.5728403 122.676246,25.3074523 C122.91628,25.1018446 123.005831,24.8364566 123.005831,24.5420842 L123.005831,20.2460594 C123.005831,19.7161891 123.456356,19.2741777 123.996433,19.2741777 L124.056441,19.2741777 C124.62606,19.2741777 125.046119,19.7161891 125.046119,20.2460594 L125.046119,24.5420842 Z M107.31777,15.2725252 C107.31777,15.8014897 106.897711,16.2435011 106.328092,16.2435011 C105.758473,16.2435011 105.338414,15.8014897 105.338414,15.2725252 L105.338414,11.6521982 C105.338414,11.1223279 105.758473,10.6812223 106.328092,10.6812223 C106.897711,10.6812223 107.31777,11.1223279 107.31777,11.6521982 L107.31777,15.2725252 Z M107.31777,7.1197697 C107.31777,7.64963994 106.897711,8.09165135 106.328092,8.09165135 C105.758473,8.09165135 105.338414,7.64963994 105.338414,7.1197697 L105.338414,3.52933275 C105.338414,2.99946252 105.758473,2.55835687 106.328092,2.55835687 C106.897711,2.55835687 107.31777,2.99946252 107.31777,3.52933275 L107.31777,7.1197697 Z M103.457841,28.30371 C103.188264,28.7738 102.588179,28.9504234 102.078569,28.6560511 C101.628044,28.3915688 101.448018,27.8028241 101.688052,27.3617185 L107.048194,19.3330522 C107.31777,18.8620564 107.948321,18.6863388 108.397923,18.950821 L108.427465,18.9807111 C108.937999,19.216209 109.087558,19.8339381 108.817982,20.3049338 L103.457841,28.30371 Z" id="Fill-5" fill="#444444"></path>
                    <path d="M49.8243074,33.733726 L49.8243074,36.1810644 C49.8243074,36.3850859 49.8327199,36.5523467 49.849545,36.683766 C49.8663701,36.8142662 49.8989687,36.9181149 49.9494439,36.9943932 C49.9988675,37.0706715 50.0724772,37.1239744 50.1681699,37.1524639 C50.2638625,37.1818724 50.3921537,37.1965767 50.5498888,37.1965767 C50.7002629,37.1965767 50.8495854,37.1607351 50.9999596,37.0872138 C51.1492821,37.0146116 51.2912437,36.9530375 51.4247927,36.9015727 C51.5751668,36.8436747 51.7087159,36.8455127 51.8243883,36.9070868 C51.9411122,36.9695798 52,37.1019181 52,37.3059395 C52,37.509961 51.953731,37.6790598 51.8622447,37.8132361 C51.7707583,37.9483314 51.6445703,38.0576943 51.4868352,38.1422437 C51.3291001,38.2258741 51.1440243,38.2874482 50.9316077,38.3278848 C50.7191911,38.3674025 50.4878463,38.3903779 50.2375733,38.398649 C49.9631143,38.4050822 49.7033771,38.3885399 49.4625683,38.3490222 C49.2207078,38.3095045 49.0093428,38.2304692 48.8305763,38.1146732 C48.6518099,37.9979583 48.5108999,37.8398876 48.4057432,37.6395422 C48.301638,37.4382778 48.2501112,37.1791154 48.2501112,36.8583789 L48.2501112,33.733726 L47.7495652,33.733726 C47.5161173,33.733726 47.3604853,33.677666 47.2805662,33.5646271 C47.2016987,33.4525072 47.1627907,33.2898414 47.1627907,33.0793869 C47.1627907,32.8606612 47.1995956,32.7035095 47.2753084,32.6088509 C47.3499697,32.5141923 47.4950859,32.4664035 47.7117088,32.4664035 L48.2501112,32.4664035 L48.2501112,31.8993709 C48.2501112,31.6659409 48.2984833,31.4913279 48.3941759,31.374613 C48.488817,31.257898 48.7085945,31.2 49.0493023,31.2 C49.4005258,31.2 49.6171486,31.2487078 49.7002224,31.3470425 C49.7832963,31.4453772 49.8243074,31.5896626 49.8243074,31.7789798 L49.8243074,32.4664035 L51.1250961,32.4664035 C51.4163802,32.4664035 51.6056623,32.5160303 51.6929424,32.614365 C51.7802224,32.7126996 51.8285945,32.8670943 51.8370071,33.0793869 C51.8454196,33.2898414 51.7991507,33.4525072 51.6992518,33.5646271 C51.5993529,33.677666 51.3911426,33.733726 51.0746208,33.733726 L49.8243074,33.733726 Z" id="Fill-7" fill="#444444"></path>
                    <path d="M54.478434,35.4580703 C54.4851048,36.1030971 54.5960079,36.5667659 54.8111432,36.8499702 C55.0254447,37.1322811 55.3239658,37.27433 55.7075404,37.27433 C56.0902811,37.27433 56.3712912,37.11352 56.5497368,36.7910066 C56.7290162,36.4693865 56.8140697,36.0280524 56.8082327,35.4687909 C56.800728,34.8952353 56.7065021,34.4413937 56.5247211,34.1045861 C56.3429401,33.7686718 56.0644316,33.5926742 55.6875278,33.57838 C55.3106241,33.5721263 55.0137707,33.7222156 54.7961338,34.0304348 C54.577663,34.3377606 54.4717631,34.8139369 54.478434,35.4580703 L54.478434,35.4580703 Z M56.7782139,37.4547945 C56.6256179,37.8157236 56.4379999,38.0640858 56.2128582,38.1980941 C55.9877166,38.3321024 55.7133774,38.4 55.3898406,38.4 C55.0663037,38.4 54.7711181,38.3338892 54.5034497,38.2034544 C54.2357813,38.0721263 54.0056366,37.8818344 53.8146831,37.6298987 C53.6228958,37.3788565 53.4744691,37.0706373 53.3685692,36.7061346 C53.2626692,36.3416319 53.2093023,35.9262061 53.2093023,35.4580703 C53.2093023,34.8845146 53.2710078,34.402978 53.392751,34.0143538 C53.5153282,33.6248362 53.6770966,33.3103633 53.8788902,33.0691483 C54.0806838,32.8288267 54.3133301,32.6564026 54.577663,32.5545563 C54.841996,32.4518166 55.1163352,32.4 55.3998469,32.4 C55.7175467,32.4 55.9985568,32.4938058 56.2428771,32.6823109 C56.4871975,32.8690292 56.6723139,33.1432996 56.7973926,33.5051221 L56.7973926,33.0584276 C56.7973926,32.9458606 56.8482579,32.8243597 56.9516563,32.6974985 C57.0542208,32.5697439 57.2109861,32.5063133 57.4219521,32.5063133 C57.633752,32.5134604 57.7905173,32.5786778 57.8922479,32.7028588 C57.9956463,32.8261465 58.0465116,32.9458606 58.0465116,33.0584276 L58.0465116,37.784455 C58.0465116,37.8979154 58.0056526,38.0158428 57.9222668,38.1391304 C57.8397149,38.2633115 57.6696079,38.3294223 57.4119458,38.335676 C57.2793624,38.335676 57.1742963,38.3178082 57.0959137,38.2829661 C57.0158633,38.2481239 56.9516563,38.2016677 56.9016248,38.1453842 C56.8524272,38.0882073 56.8190729,38.0283502 56.8023957,37.9649196 C56.7857186,37.9005956 56.7782139,37.8407385 56.7782139,37.784455 L56.7782139,37.4547945 Z" id="Fill-9" fill="#444444"></path>
                    <path d="M63.4704536,37.2318819 C63.9990505,37.2318819 64.3872855,37.0751292 64.6361541,36.7633948 C64.8850227,36.4507749 65.0084615,36.0106273 65.0084615,35.4420664 C65.0084615,34.8735055 64.8909956,34.4191882 64.6540726,34.0782288 C64.4171497,33.7390406 64.0149781,33.5681181 63.4475576,33.5681181 C63.1638474,33.5681181 62.9269245,33.6177122 62.7367889,33.7160148 C62.5476488,33.8143173 62.3963367,33.9471587 62.2818571,34.11631 C62.1673775,34.2845756 62.0867441,34.4802952 62.0389613,34.7052399 C61.992174,34.9301845 61.9672872,35.1684133 61.9672872,35.4216974 C61.9672872,35.9902583 62.0867441,36.4339483 62.323667,36.7527675 C62.5595945,37.0724723 62.9428521,37.2318819 63.4704536,37.2318819 M63.4704536,32.4 C64.0149781,32.4 64.4798646,32.477048 64.8671042,32.6320295 C65.2543437,32.7861255 65.5669227,32.9995572 65.8078275,33.2740959 C66.0487323,33.5477491 66.2259267,33.8701107 66.3404063,34.2420664 C66.4548859,34.6140221 66.5116279,35.0143173 66.5116279,35.4420664 C66.5116279,35.877786 66.4548859,36.2754244 66.3404063,36.6367528 C66.2259267,36.9989668 66.0447504,37.3089299 65.7958818,37.5684133 C65.5480087,37.8278967 65.2314478,38.0315867 64.8491856,38.1794834 C64.4669234,38.3264945 64.0080097,38.4 63.4704536,38.4 C62.9338928,38.4 62.4769701,38.3247232 62.0986898,38.1732841 C61.719414,38.0227306 61.4078306,37.8163838 61.1639393,37.5524723 C60.9190526,37.2894465 60.7408627,36.9750554 60.6313605,36.6110701 C60.5198674,36.2453137 60.4651163,35.8494465 60.4651163,35.4216974 C60.4651163,34.9930627 60.5198674,34.5945387 60.6313605,34.2261255 C60.7408627,33.8577122 60.9150707,33.5380074 61.1519936,33.2687823 C61.3889165,32.997786 61.6985091,32.7861255 62.0807713,32.6320295 C62.4630334,32.477048 62.9269245,32.4 63.4704536,32.4" id="Fill-11" fill="#444444"></path>
                    <path d="M74.9428349,34.9605576 C74.9428349,34.7316306 74.9282837,34.5315448 74.8991815,34.3612015 C74.8700793,34.1890556 74.8182409,34.0466521 74.7427569,33.9321886 C74.6663635,33.8177251 74.5608679,33.7321028 74.4235416,33.6744204 C74.2862154,33.6176393 74.1134208,33.5887981 73.9051579,33.5887981 C73.7314538,33.5887981 73.5713915,33.6068239 73.4240613,33.6419741 C73.2758217,33.6789269 73.1484994,33.7438196 73.0402754,33.8402573 C72.9320514,33.9375964 72.8465636,34.0709869 72.7856308,34.2422315 C72.7246979,34.4143774 72.6937768,34.6351928 72.6937768,34.9064804 L72.6937768,37.9492267 C72.6937768,38.0781108 72.6310251,38.1835615 72.5046122,38.2655786 C72.3791087,38.3475958 72.2154086,38.3917589 72.0135118,38.3989692 C71.8116149,38.4061795 71.6470053,38.3656215 71.5205924,38.2754928 C71.395089,38.1862653 71.3323373,38.0781108 71.3323373,37.9492267 L71.3323373,34.9605576 C71.3323373,34.5027036 71.26231,34.1611157 71.1204365,33.9321886 C70.980382,33.7032616 70.7011823,33.5887981 70.2828375,33.5887981 C70.1100429,33.5887981 69.9499805,33.6068239 69.8026504,33.6419741 C69.6544108,33.6789269 69.5279979,33.7438196 69.4243212,33.8402573 C69.319735,33.9375964 69.2369754,34.0709869 69.1751332,34.2422315 C69.1142003,34.4143774 69.0841886,34.6351928 69.0841886,34.9064804 L69.0841886,37.9492267 C69.0841886,38.0781108 69.0205275,38.1844628 68.895024,38.2700851 C68.7686111,38.3557074 68.5976354,38.3989692 68.3811875,38.3989692 C68.1647395,38.3989692 68.0010394,38.3557074 67.8891776,38.2700851 C67.7773158,38.1844628 67.7209302,38.0781108 67.7209302,37.9492267 L67.7209302,32.9038197 C67.7209302,32.7749356 67.7754969,32.6766952 67.8837209,32.6090987 C67.9919449,32.5406008 68.1683773,32.5072532 68.4139275,32.5072532 C68.6576588,32.5072532 68.8277251,32.544206 68.9213979,32.6199141 C69.0150708,32.694721 69.062362,32.7893562 69.062362,32.9038197 L69.062362,33.4716308 C69.1842276,33.171502 69.3624789,32.9182403 69.5971158,32.7100429 C69.8308432,32.5036481 70.1100429,32.4 70.4356243,32.4 C70.8894374,32.4 71.2477589,32.4982403 71.5105885,32.694721 C71.7734182,32.8912017 71.9662206,33.171502 72.0880863,33.5356222 C72.275432,33.2147638 72.5337144,32.9443776 72.8611147,32.7262661 C73.1894245,32.5090558 73.5695726,32.4 74.0024685,32.4 C74.2680265,32.4 74.5335845,32.4423605 74.7964142,32.5279828 C75.0601533,32.6136051 75.2938807,32.7406867 75.4994154,32.9083261 C75.7040405,33.0768669 75.870469,33.2823604 75.9968819,33.5248067 C76.1223853,33.7681543 76.1860465,34.0502573 76.1860465,34.3711156 L76.1860465,37.9492267 C76.1860465,38.0636903 76.1587632,38.1655357 76.1041964,38.2547632 C76.0505392,38.3439906 75.8932051,38.3917589 75.6340133,38.3989692 C75.3748214,38.4061795 75.1947512,38.3755357 75.0938028,38.3079391 C74.9928544,38.2403426 74.9428349,38.1204714 74.9428349,37.9492267 L74.9428349,34.9605576 Z" id="Fill-13" fill="#444444"></path>
                    <path d="M80.158222,37.9945068 C80.158222,38.1460061 80.0904153,38.286469 79.9567963,38.4179021 C79.8221801,38.5493353 79.6406975,38.6145502 79.4113513,38.6145502 C79.1820052,38.6145502 79.0005226,38.5513419 78.8669035,38.4249253 C78.7312901,38.2975054 78.6654777,38.1540325 78.6654777,37.9945068 L78.6654777,34.1326645 C78.6654777,33.8938776 78.7442532,33.7193023 78.901804,33.6079353 C79.0593548,33.4975716 79.2298687,33.4413864 79.4113513,33.4413864 C79.5928339,33.4413864 79.7623506,33.495565 79.9208986,33.6029188 C80.0794466,33.7092692 80.158222,33.8868545 80.158222,34.1326645 L80.158222,37.9945068 Z M78.6046512,32.0096682 C78.6046512,31.7799111 78.6834266,31.5872763 78.8369888,31.4317638 C78.990551,31.2772546 79.1820052,31.2 79.4113513,31.2 C79.6406975,31.2 79.8321516,31.2772546 79.986711,31.4317638 C80.1402732,31.5872763 80.2170543,31.7799111 80.2170543,32.0096682 C80.2170543,32.241432 80.1402732,32.4330635 79.986711,32.588576 C79.8321516,32.7440885 79.6406975,32.8213431 79.4113513,32.8213431 C79.1820052,32.8213431 78.990551,32.7440885 78.8369888,32.588576 C78.6834266,32.4330635 78.6046512,32.241432 78.6046512,32.0096682 L78.6046512,32.0096682 Z" id="Fill-15" fill="#444444"></path>
                    <path d="M84.8940748,33.733726 L84.8940748,36.1810644 C84.8940748,36.3850859 84.9024874,36.5523467 84.9193124,36.683766 C84.9361375,36.8142662 84.9687361,36.9181149 85.0192113,36.9943932 C85.068635,37.0706715 85.1422447,37.1239744 85.2379373,37.1524639 C85.3336299,37.1818724 85.4619211,37.1965767 85.6196562,37.1965767 C85.7700303,37.1965767 85.9193529,37.1607351 86.069727,37.0872138 C86.2190495,37.0146116 86.3610111,36.9530375 86.4945602,36.9015727 C86.6449343,36.8436747 86.7784833,36.8455127 86.8941557,36.9070868 C87.0108797,36.9695798 87.0697674,37.1019181 87.0697674,37.3059395 C87.0697674,37.509961 87.0234985,37.6790598 86.9320121,37.8132361 C86.8405258,37.9483314 86.7143377,38.0576943 86.5566026,38.1422437 C86.3988675,38.2258741 86.2137917,38.2874482 86.0013751,38.3278848 C85.7889585,38.3674025 85.5576138,38.3903779 85.3073407,38.398649 C85.0328817,38.4050822 84.7731446,38.3885399 84.5323357,38.3490222 C84.2904752,38.3095045 84.0791102,38.2304692 83.9003438,38.1146732 C83.7215774,37.9979583 83.5806673,37.8398876 83.4755106,37.6395422 C83.3714055,37.4382778 83.3198787,37.1791154 83.3198787,36.8583789 L83.3198787,33.733726 L82.8193327,33.733726 C82.5858847,33.733726 82.4302528,33.677666 82.3503337,33.5646271 C82.2714661,33.4525072 82.2325581,33.2898414 82.2325581,33.0793869 C82.2325581,32.8606612 82.269363,32.7035095 82.3450758,32.6088509 C82.4197371,32.5141923 82.5648534,32.4664035 82.7814762,32.4664035 L83.3198787,32.4664035 L83.3198787,31.8993709 C83.3198787,31.6659409 83.3682508,31.4913279 83.4639434,31.374613 C83.5585844,31.257898 83.778362,31.2 84.1190698,31.2 C84.4702932,31.2 84.6869161,31.2487078 84.7699899,31.3470425 C84.8530637,31.4453772 84.8940748,31.5896626 84.8940748,31.7789798 L84.8940748,32.4664035 L86.1948635,32.4664035 C86.4861476,32.4664035 86.6754297,32.5160303 86.7627098,32.614365 C86.8499899,32.7126996 86.898362,32.8670943 86.9067745,33.0793869 C86.9151871,33.2898414 86.8689181,33.4525072 86.7690192,33.5646271 C86.6691203,33.677666 86.46091,33.733726 86.1443883,33.733726 L84.8940748,33.733726 Z" id="Fill-17" fill="#444444"></path>
                    <path d="M89.5482014,35.4580703 C89.5548723,36.1030971 89.6657753,36.5667659 89.8809107,36.8499702 C90.0952121,37.1322811 90.3937332,37.27433 90.7773078,37.27433 C91.1600486,37.27433 91.4410587,37.11352 91.6195043,36.7910066 C91.7987837,36.4693865 91.8838372,36.0280524 91.8780002,35.4687909 C91.8704955,34.8952353 91.7762695,34.4413937 91.5944885,34.1045861 C91.4127075,33.7686718 91.134199,33.5926742 90.7572953,33.57838 C90.3803915,33.5721263 90.0835381,33.7222156 89.8659012,34.0304348 C89.6474305,34.3377606 89.5415305,34.8139369 89.5482014,35.4580703 L89.5482014,35.4580703 Z M91.8479813,37.4547945 C91.6953853,37.8157236 91.5077673,38.0640858 91.2826257,38.1980941 C91.0574841,38.3321024 90.7831448,38.4 90.459608,38.4 C90.1360712,38.4 89.8408855,38.3338892 89.5732171,38.2034544 C89.3055488,38.0721263 89.075404,37.8818344 88.8844506,37.6298987 C88.6926633,37.3788565 88.5442366,37.0706373 88.4383366,36.7061346 C88.3324367,36.3416319 88.2790698,35.9262061 88.2790698,35.4580703 C88.2790698,34.8845146 88.3407752,34.402978 88.4625185,34.0143538 C88.5850956,33.6248362 88.746864,33.3103633 88.9486576,33.0691483 C89.1504512,32.8288267 89.3830975,32.6564026 89.6474305,32.5545563 C89.9117634,32.4518166 90.1861026,32.4 90.4696143,32.4 C90.7873141,32.4 91.0683242,32.4938058 91.3126446,32.6823109 C91.5569649,32.8690292 91.7420814,33.1432996 91.86716,33.5051221 L91.86716,33.0584276 C91.86716,32.9458606 91.9180254,32.8243597 92.0214237,32.6974985 C92.1239882,32.5697439 92.2807535,32.5063133 92.4917196,32.5063133 C92.7035194,32.5134604 92.8602847,32.5786778 92.9620154,32.7028588 C93.0654137,32.8261465 93.1162791,32.9458606 93.1162791,33.0584276 L93.1162791,37.784455 C93.1162791,37.8979154 93.07542,38.0158428 92.9920343,38.1391304 C92.9094823,38.2633115 92.7393753,38.3294223 92.4817133,38.335676 C92.3491299,38.335676 92.2440638,38.3178082 92.1656811,38.2829661 C92.0856308,38.2481239 92.0214237,38.2016677 91.9713923,38.1453842 C91.9221946,38.0882073 91.8888403,38.0283502 91.8721632,37.9649196 C91.855486,37.9005956 91.8479813,37.8407385 91.8479813,37.784455 L91.8479813,37.4547945 Z" id="Fill-19" fill="#444444"></path>
                    <path d="M97.3309187,37.2318819 C97.8595156,37.2318819 98.2477506,37.0751292 98.4966192,36.7633948 C98.7454878,36.4507749 98.8689266,36.0106273 98.8689266,35.4420664 C98.8689266,34.8735055 98.7514607,34.4191882 98.5145378,34.0782288 C98.2776148,33.7390406 97.8754432,33.5681181 97.3080228,33.5681181 C97.0243125,33.5681181 96.7873896,33.6177122 96.597254,33.7160148 C96.4081139,33.8143173 96.2568018,33.9471587 96.1423222,34.11631 C96.0278427,34.2845756 95.9472092,34.4802952 95.8994265,34.7052399 C95.8526392,34.9301845 95.8277523,35.1684133 95.8277523,35.4216974 C95.8277523,35.9902583 95.9472092,36.4339483 96.1841321,36.7527675 C96.4200596,37.0724723 96.8033172,37.2318819 97.3309187,37.2318819 M97.3309187,32.4 C97.8754432,32.4 98.3403297,32.477048 98.7275693,32.6320295 C99.1148088,32.7861255 99.4273878,32.9995572 99.6682926,33.2740959 C99.9091974,33.5477491 100.086392,33.8701107 100.200871,34.2420664 C100.315351,34.6140221 100.372093,35.0143173 100.372093,35.4420664 C100.372093,35.877786 100.315351,36.2754244 100.200871,36.6367528 C100.086392,36.9989668 99.9052155,37.3089299 99.6563469,37.5684133 C99.4084738,37.8278967 99.0919129,38.0315867 98.7096507,38.1794834 C98.3273886,38.3264945 97.8684749,38.4 97.3309187,38.4 C96.794358,38.4 96.3374352,38.3247232 95.9591549,38.1732841 C95.5798792,38.0227306 95.2682957,37.8163838 95.0244044,37.5524723 C94.7795177,37.2894465 94.6013278,36.9750554 94.4918256,36.6110701 C94.3803325,36.2453137 94.3255814,35.8494465 94.3255814,35.4216974 C94.3255814,34.9930627 94.3803325,34.5945387 94.4918256,34.2261255 C94.6013278,33.8577122 94.7755358,33.5380074 95.0124587,33.2687823 C95.2493817,32.997786 95.5589742,32.7861255 95.9412364,32.6320295 C96.3234986,32.477048 96.7873896,32.4 97.3309187,32.4" id="Fill-21" fill="#444444"></path>
                    <path d="M102.790698,37.8 C102.790698,37.6299505 102.849031,37.4866337 102.964203,37.3722772 C103.079375,37.2579208 103.223713,37.2 103.394975,37.2 C103.567732,37.2 103.710575,37.2579208 103.826495,37.3722772 C103.942414,37.4866337 104,37.6299505 104,37.8 C104,37.9707921 103.942414,38.1133663 103.826495,38.2284653 C103.710575,38.3428218 103.567732,38.4 103.394975,38.4 C103.223713,38.4 103.079375,38.3428218 102.964203,38.2284653 C102.849031,38.1133663 102.790698,37.9707921 102.790698,37.8" id="Fill-23" fill="#444444"></path>
                    <path d="M106.418605,35.4314391 C106.418605,35.0320295 106.477393,34.6485609 106.593188,34.2845756 C106.709873,33.9197048 106.883565,33.5982288 107.112482,33.3210332 C107.342291,33.0438376 107.627324,32.8206642 107.970254,32.6523985 C108.312294,32.4850185 108.709559,32.4 109.161159,32.4 C109.521014,32.4 109.851474,32.4628782 110.150759,32.5895203 C110.450935,32.7161624 110.67807,32.8569742 110.833948,33.0110701 C110.890064,33.0668635 110.944398,33.1368266 110.998733,33.2209594 C111.051286,33.3050923 111.089587,33.3971956 111.114528,33.4954982 C111.138577,33.5938007 111.146594,33.6912177 111.135905,33.7895203 C111.124326,33.8878229 111.084243,33.9790406 111.013875,34.0631734 C110.985372,34.0985978 110.943508,34.136679 110.887392,34.1791882 C110.830385,34.2208118 110.76269,34.2509225 110.686087,34.2686347 C110.608594,34.2863469 110.526646,34.2863469 110.442027,34.2686347 C110.357408,34.2509225 110.272789,34.1933579 110.188169,34.0941697 C110.047434,33.9267897 109.900464,33.7966052 109.748149,33.7053875 C109.596725,33.6141697 109.408782,33.5681181 109.182537,33.5681181 C108.970543,33.5681181 108.776364,33.6141697 108.6,33.7053875 C108.423635,33.7966052 108.273102,33.9232472 108.150182,34.084428 C108.02637,34.2456089 107.929281,34.442214 107.858913,34.6742435 C107.788546,34.9053875 107.752917,35.1613284 107.752917,35.4420664 C107.752917,35.7369742 107.792999,35.9946863 107.874946,36.215203 C107.956003,36.4366052 108.063781,36.622583 108.19739,36.7740221 C108.33189,36.9245756 108.483314,37.0388192 108.653444,37.1158672 C108.822682,37.1929151 108.994593,37.2318819 109.171848,37.2318819 C109.305457,37.2318819 109.416798,37.224797 109.505871,37.2106273 C109.593163,37.1973432 109.665312,37.175203 109.722318,37.1477491 C109.778434,37.1194096 109.827424,37.0892989 109.870179,37.0583026 C109.912044,37.0264207 109.954798,36.9927675 109.997553,36.9582288 C110.061686,36.9086347 110.128491,36.858155 110.198858,36.8059041 C110.269226,36.7527675 110.344047,36.7138007 110.42065,36.6890037 C110.498143,36.6650923 110.582762,36.6597786 110.675398,36.6739483 C110.766253,36.6881181 110.866014,36.7297417 110.97112,36.7997048 C111.126107,36.9059779 111.218743,37.0157934 111.247246,37.1318081 C111.274859,37.2478229 111.235667,37.3966052 111.130561,37.5790406 C110.988935,37.8243542 110.752892,38.0227306 110.42065,38.1732841 C110.089299,38.3247232 109.679563,38.4 109.193225,38.4 C108.747861,38.4 108.352377,38.3300369 108.006774,38.1892251 C107.661172,38.0492989 107.369903,37.8500369 107.13386,37.5896679 C106.897817,37.3301845 106.71878,37.0184502 106.598532,36.6526937 C106.479174,36.2878229 106.418605,35.8813284 106.418605,35.4314391" id="Fill-25" fill="#444444"></path>
                    <path d="M115.470454,37.2318819 C115.99905,37.2318819 116.387285,37.0751292 116.636154,36.7633948 C116.885023,36.4507749 117.008462,36.0106273 117.008462,35.4420664 C117.008462,34.8735055 116.890996,34.4191882 116.654073,34.0782288 C116.41715,33.7390406 116.014978,33.5681181 115.447558,33.5681181 C115.163847,33.5681181 114.926925,33.6177122 114.736789,33.7160148 C114.547649,33.8143173 114.396337,33.9471587 114.281857,34.11631 C114.167378,34.2845756 114.086744,34.4802952 114.038961,34.7052399 C113.992174,34.9301845 113.967287,35.1684133 113.967287,35.4216974 C113.967287,35.9902583 114.086744,36.4339483 114.323667,36.7527675 C114.559594,37.0724723 114.942852,37.2318819 115.470454,37.2318819 M115.470454,32.4 C116.014978,32.4 116.479865,32.477048 116.867104,32.6320295 C117.254344,32.7861255 117.566923,32.9995572 117.807827,33.2740959 C118.048732,33.5477491 118.225927,33.8701107 118.340406,34.2420664 C118.454886,34.6140221 118.511628,35.0143173 118.511628,35.4420664 C118.511628,35.877786 118.454886,36.2754244 118.340406,36.6367528 C118.225927,36.9989668 118.04475,37.3089299 117.795882,37.5684133 C117.548009,37.8278967 117.231448,38.0315867 116.849186,38.1794834 C116.466923,38.3264945 116.00801,38.4 115.470454,38.4 C114.933893,38.4 114.47697,38.3247232 114.09869,38.1732841 C113.719414,38.0227306 113.407831,37.8163838 113.163939,37.5524723 C112.919053,37.2894465 112.740863,36.9750554 112.631361,36.6110701 C112.519867,36.2453137 112.465116,35.8494465 112.465116,35.4216974 C112.465116,34.9930627 112.519867,34.5945387 112.631361,34.2261255 C112.740863,33.8577122 112.915071,33.5380074 113.151994,33.2687823 C113.388917,32.997786 113.698509,32.7861255 114.080771,32.6320295 C114.463033,32.477048 114.926925,32.4 115.470454,32.4" id="Fill-27" fill="#444444"></path>
                    <path d="M126.942835,34.9605576 C126.942835,34.7316306 126.928284,34.5315448 126.899181,34.3612015 C126.870079,34.1890556 126.818241,34.0466521 126.742757,33.9321886 C126.666364,33.8177251 126.560868,33.7321028 126.423542,33.6744204 C126.286215,33.6176393 126.113421,33.5887981 125.905158,33.5887981 C125.731454,33.5887981 125.571391,33.6068239 125.424061,33.6419741 C125.275822,33.6789269 125.148499,33.7438196 125.040275,33.8402573 C124.932051,33.9375964 124.846564,34.0709869 124.785631,34.2422315 C124.724698,34.4143774 124.693777,34.6351928 124.693777,34.9064804 L124.693777,37.9492267 C124.693777,38.0781108 124.631025,38.1835615 124.504612,38.2655786 C124.379109,38.3475958 124.215409,38.3917589 124.013512,38.3989692 C123.811615,38.4061795 123.647005,38.3656215 123.520592,38.2754928 C123.395089,38.1862653 123.332337,38.0781108 123.332337,37.9492267 L123.332337,34.9605576 C123.332337,34.5027036 123.26231,34.1611157 123.120437,33.9321886 C122.980382,33.7032616 122.701182,33.5887981 122.282837,33.5887981 C122.110043,33.5887981 121.949981,33.6068239 121.80265,33.6419741 C121.654411,33.6789269 121.527998,33.7438196 121.424321,33.8402573 C121.319735,33.9375964 121.236975,34.0709869 121.175133,34.2422315 C121.1142,34.4143774 121.084189,34.6351928 121.084189,34.9064804 L121.084189,37.9492267 C121.084189,38.0781108 121.020527,38.1844628 120.895024,38.2700851 C120.768611,38.3557074 120.597635,38.3989692 120.381187,38.3989692 C120.16474,38.3989692 120.001039,38.3557074 119.889178,38.2700851 C119.777316,38.1844628 119.72093,38.0781108 119.72093,37.9492267 L119.72093,32.9038197 C119.72093,32.7749356 119.775497,32.6766952 119.883721,32.6090987 C119.991945,32.5406008 120.168377,32.5072532 120.413928,32.5072532 C120.657659,32.5072532 120.827725,32.544206 120.921398,32.6199141 C121.015071,32.694721 121.062362,32.7893562 121.062362,32.9038197 L121.062362,33.4716308 C121.184228,33.171502 121.362479,32.9182403 121.597116,32.7100429 C121.830843,32.5036481 122.110043,32.4 122.435624,32.4 C122.889437,32.4 123.247759,32.4982403 123.510589,32.694721 C123.773418,32.8912017 123.966221,33.171502 124.088086,33.5356222 C124.275432,33.2147638 124.533714,32.9443776 124.861115,32.7262661 C125.189424,32.5090558 125.569573,32.4 126.002468,32.4 C126.268027,32.4 126.533585,32.4423605 126.796414,32.5279828 C127.060153,32.6136051 127.293881,32.7406867 127.499415,32.9083261 C127.704041,33.0768669 127.870469,33.2823604 127.996882,33.5248067 C128.122385,33.7681543 128.186047,34.0502573 128.186047,34.3711156 L128.186047,37.9492267 C128.186047,38.0636903 128.158763,38.1655357 128.104196,38.2547632 C128.050539,38.3439906 127.893205,38.3917589 127.634013,38.3989692 C127.374821,38.4061795 127.194751,38.3755357 127.093803,38.3079391 C126.992854,38.2403426 126.942835,38.1204714 126.942835,37.9492267 L126.942835,34.9605576 Z" id="Fill-29" fill="#444444"></path>
                    <path d="M76.7866613,28.4167087 L85.6432197,14.8371139 C85.9887643,14.400859 85.9142533,13.7613279 85.4755701,13.4169649 L85.4755701,13.4169649 C85.0378182,13.0716738 84.397024,13.1468581 84.050548,13.5831131 L75.1939896,27.1627078 C74.848445,27.5989627 74.922956,28.2384939 75.3616392,28.583785 L75.3616392,28.583785 C75.7993911,28.928148 76.4411167,28.8529636 76.7866613,28.4167087" id="Fill-31" fill="#444444"></path>
                    <path d="M21.8932855,31.2 C14.5581783,31.2 5.54066404,27.8379858 1.03331283,22.1714589 C-0.662216037,20.0403657 -0.2254463,17.0019487 2.00807791,15.3857505 C4.24347666,13.7695523 7.42739682,14.1852227 9.12292569,16.316316 C11.7491678,19.6175439 17.8161431,21.5761116 22.0413748,21.5135375 C25.8598295,21.4715235 30.5518237,19.4959715 33.2717932,16.2313941 C35.0160603,14.1369513 38.2102905,13.7865366 40.4063237,15.4519002 C42.602357,17.1154759 42.9678939,20.1619381 41.2226895,22.2563809 C36.5531898,27.8621216 29.1046725,31.1213355 22.1604086,31.1982122 C22.0713675,31.2 21.9813892,31.2 21.8932855,31.2" id="Fill-33" fill="#09C7D1"></path>
                    <path d="M31.4418605,31.1432387 L31.4418605,36.9922449 C31.4418605,39.7582045 33.6071087,42 36.2795162,42 C38.9510308,42 41.1162791,39.7582045 41.1162791,36.9922449 L41.1162791,24 C38.7313809,26.9517744 35.28752,29.4385496 31.4418605,31.1432387" id="Fill-35" fill="#09C7D1"></path>
                    <path d="M9.6744186,31.1432387 L9.6744186,36.9922449 C9.6744186,39.7582045 7.50917032,42 4.83676286,42 C2.16524828,42 0,39.7582045 0,36.9922449 L0,24 C2.38489821,26.9517744 5.82875908,29.4385496 9.6744186,31.1432387" id="Fill-37" fill="#09C7D1"></path>
                    <path d="M4.8372093,12 C2.16594126,12 0,9.85997941 0,7.21870863 L0,4.78040888 C0,2.14002059 2.16594126,0 4.8372093,0 C7.50847734,0 9.6744186,2.14002059 9.6744186,4.78040888 L9.6744186,7.21870863 C9.6744186,9.85997941 7.50847734,12 4.8372093,12" id="Fill-39" fill="#09C7D1"></path>
                    <path d="M36.2790698,12 C33.6078017,12 31.4418605,9.85997941 31.4418605,7.21870863 L31.4418605,4.78040888 C31.4418605,2.14002059 33.6078017,0 36.2790698,0 C38.9503378,0 41.1162791,2.14002059 41.1162791,4.78040888 L41.1162791,7.21870863 C41.1162791,9.85997941 38.9503378,12 36.2790698,12" id="Fill-41" fill="#09C7D1"></path>
                </g>
            </g>
        </g>
    </g>
</svg>