<?xml version="1.0" standalone="no"?><!DOCTYPE svg PUBLIC "-//W3C//DTD SVG 1.1//EN" "http://www.w3.org/Graphics/SVG/1.1/DTD/svg11.dtd"><svg t="1507613897571" class="icon" style="" viewBox="0 0 1024 1024" version="1.1" xmlns="http://www.w3.org/2000/svg" p-id="2377" xmlns:xlink="http://www.w3.org/1999/xlink" width="256" height="256"><defs><style type="text/css"></style></defs><path d="M486.133 858.075v-735.757c0-20.911 16.951-37.862 37.862-37.862s37.862 16.951 37.862 37.862v735.757c0 20.911-16.951 37.862-37.862 37.862s-37.862-16.951-37.862-37.862z" p-id="2378" fill="#09c7d1"></path><path d="M197.448 636.472c-0.001-9.281 3.393-18.582 10.246-25.886 14.301-15.24 38.247-16.001 53.488-1.701l256.866 241.030 256.868-241.030c15.24-14.301 39.186-13.538 53.487 1.701 14.302 15.241 13.537 39.188-1.702 53.488l-282.761 265.326c-14.56 13.662-37.227 13.662-51.786 0l-282.76-265.326c-7.939-7.449-11.949-17.514-11.949-27.603z" p-id="2379" fill="#09c7d1"></path></svg>