<?xml version="1.0" standalone="no"?><!DOCTYPE svg PUBLIC "-//W3C//DTD SVG 1.1//EN" "http://www.w3.org/Graphics/SVG/1.1/DTD/svg11.dtd"><svg t="1507549456648" class="icon" style="" viewBox="0 0 1024 1024" version="1.1" xmlns="http://www.w3.org/2000/svg" p-id="12926" xmlns:xlink="http://www.w3.org/1999/xlink" width="512" height="512"><defs><style type="text/css"></style></defs><path d="M512.003232 970.651152C259.291152 970.651152 53.705051 765.112889 53.705051 512.474505 53.705051 259.838707 259.291152 54.30303 512.003232 54.30303c252.700444 0 458.29301 205.535677 458.29301 458.171475C970.296242 765.118061 764.703677 970.651152 512.003232 970.651152L512.003232 970.651152 512.003232 970.651152zM512.003232 95.207434c-230.141414 0-417.379556 187.186424-417.379556 417.267071S281.861818 929.732525 512.003232 929.732525s417.374384-187.177374 417.374384-417.25802S742.144646 95.207434 512.003232 95.207434L512.003232 95.207434 512.003232 95.207434z" p-id="12927" fill="#09c7d1"></path><path d="M512.000646 512.477091m-368.484848 0a285 285 0 1 0 736.969697 0 285 285 0 1 0-736.969697 0Z" p-id="12928" fill="#09c7d1"></path><path d="M597.061172 537.508202c-3.291798-21.065697-9.358222-39.222303-18.231596-54.441374-13.883475-24.172606-32.292202-36.437333-55.217131-36.798061-2.398384 0-4.755394 0.197818-7.077495 0.549495-2.33503-0.307717-4.710141-0.509414-7.144727-0.548202-15.500929 0-29.38699 7.345131-41.656889 22.025051-3.382303 4.013253-6.490505 8.419556-9.340121 13.198222 0.193939-2.854788 0.389172-5.708283 0.612848-8.614788 1.127434-15.887515 3.061657-31.149253 5.766465-45.814949 0.734384-3.377131 1.499798-6.729697 2.329859-10.035717 4.844606-19.977051 12.108283-36.02101 21.796202-48.147394 7.575273-9.831434 17.051152-15.822869 28.414707-18.007919 12.595717 2.234182 23.263677 9.266424 31.993535 21.132929 5.45099 7.408485 9.804283 16.169374 13.07798 26.259394 0.921859 4.354586 1.710545 8.88501 2.329859 13.640404l1.278707 0 13.817535 0 2.836687 0c0 0 0 0 0-0.001293l11.385535 0 2.836687 0c-0.749899-7.65802-1.817859-14.851879-3.197414-21.594505-3.458586-22.269414-9.956848-40.065293-19.524525-53.347556-12.591838-17.367919-28.578909-26.056404-47.954747-26.056404-2.288485 0.047838-4.51103 0.209455-6.683152 0.471919-2.45398-0.306424-4.966141-0.470626-7.539071-0.470626-17.436444 0.363313-31.539717 6.985697-42.300768 19.878788-6.825374 8.459636-12.736646 18.411313-17.731232 29.847273-4.556283 9.033697-8.473859 19.109495-11.735919 30.246788-3.978343 14.196364-7.085253 29.305535-9.362101 45.279677-1.969131 10.794667-3.492202 22.023758-4.560162 33.697616-2.567758 24.175192-3.850343 48.002586-3.850343 71.486061-0.226263 46.264889 5.691475 86.184081 17.744162 119.756283 12.158707 34.086788 34.368646 51.740444 66.614303 52.959677 2.523798-0.037495 4.989414-0.226263 7.408485-0.531394 2.221253 0.258586 4.487758 0.442182 6.813737 0.530101 8.98198-0.134465 17.299394-1.974303 24.950949-5.504 13.385697-5.510465 24.768646-16.452525 34.13204-32.884364 14.099394-23.460202 21.257051-53.717333 21.475556-90.788202C601.476525 567.617939 599.961212 551.836444 597.061172 537.508202zM478.242263 653.61196c-7.116283-11.125657-12.253091-24.232081-15.416889-39.305051-1.391192-9.153939-2.135919-18.956929-2.20703-29.434828 0.173253-25.128081 4.155475-46.943677 11.924687-65.468768 1.556687-3.245253 3.23103-6.390949 5.055354-9.415111 4.681697-8.257939 10.007273-14.838949 15.952162-19.797333 6.168566-4.218828 12.943515-6.886141 20.319677-8.005818 16.404687 2.53802 29.893818 13.032727 40.460929 31.488 2.446222 4.196848 4.637737 8.586343 6.599111 13.149091 5.585455 16.765414 8.451879 35.731394 8.601859 56.891475-0.18101 25.153939-4.300283 47.054869-12.34101 65.727354-0.632242 1.22699-1.277414 2.443636-1.948444 3.638303-10.294303 18.521212-23.192566 29.116768-38.688323 31.809939C501.390869 682.225778 488.616727 671.806061 478.242263 653.61196z" p-id="12929" fill="#09c7d1"></path></svg>