<?xml version="1.0" encoding="UTF-8"?>
<svg width="51px" height="42px" viewBox="0 0 51 42" version="1.1" xmlns="http://www.w3.org/2000/svg" xmlns:xlink="http://www.w3.org/1999/xlink">
    <!-- Generator: Sketch 46.2 (44496) - http://www.bohemiancoding.com/sketch -->
    <title>icon_wzpf</title>
    <desc>Created with Sketch.</desc>
    <defs></defs>
    <g id="效果图" stroke="none" stroke-width="1" fill="none" fill-rule="evenodd">
        <g id="首页展开" transform="translate(-628.000000, -558.000000)" fill="#09C7D1">
            <g id="功能区-copy" transform="translate(1.000000, 456.000000)">
                <g id="功能按钮" transform="translate(35.466667, 78.000000)">
                    <g id="Group-4-Copy-3" transform="translate(541.453333, 24.000000)">
                        <path d="M69.3496846,0 L65.7802444,0 L65.7802444,0 C63.96301,3.33820547e-16 62.428811,1.21181884 61.9416633,2.87144072 L50.7475406,15.3037735 C50.0084393,16.1246286 50.0747139,17.3892231 50.895569,18.1283244 L58.3501563,24.8404649 C59.1710114,25.5795662 60.4356059,25.5132916 61.1747071,24.6924365 L61.7802444,24.0199192 L61.7802444,38 C61.7802444,40.209139 63.5711054,42 65.7802444,42 L85.8425176,42 C88.0516566,42 89.8425176,40.209139 89.8425176,38 L89.8425176,24.7951853 C90.5832235,25.5316421 91.7766392,25.5760909 92.5710672,24.8785591 L100.417398,17.989242 L100.417398,17.989242 C101.245723,17.2619479 101.329415,16.001553 100.604525,15.1711235 L89.5585739,2.5169473 C88.9694322,1.04206111 87.5276681,-3.09557128e-16 85.8425176,0 L82.2730774,0 C80.8719754,2.04449608 78.5007235,3.38848393 75.811381,3.38848393 C73.1220385,3.38848393 70.7507866,2.04449608 69.3496846,2.44249065e-15 Z" id="icon_wzpf"></path>
                    </g>
                </g>
            </g>
        </g>
    </g>
</svg>