<?xml version="1.0" standalone="no"?><!DOCTYPE svg PUBLIC "-//W3C//DTD SVG 1.1//EN" "http://www.w3.org/Graphics/SVG/1.1/DTD/svg11.dtd"><svg t="1508156369594" class="icon" style="" viewBox="0 0 1024 1024" version="1.1" xmlns="http://www.w3.org/2000/svg" p-id="8801" xmlns:xlink="http://www.w3.org/1999/xlink" width="256" height="256"><defs><style type="text/css"></style></defs><path d="M983.3472 44.1088c-12.416-12.5184-32.6656-12.5184-45.2608 0L510.7712 471.4496 83.5072 44.1088c-12.4928-12.5184-32.8448-12.5184-45.3376 0-12.4928 12.4928-12.4928 32.7936 0 45.2608l427.2896 427.3152L38.1696 944.0256c-12.416 12.4928-12.4928 32.8192 0 45.3376 12.4928 12.4928 32.8448 12.4928 45.3376 0l427.2384-427.3408 45.3376-45.3376L983.424 89.3696C995.9168 76.9024 995.9168 56.6016 983.3472 44.1088" p-id="8802" fill="#999999"></path><path d="M632.5504 638.464c12.4928-12.4928 32.8192-12.4928 45.2608 0l305.5616 305.5616c12.5696 12.4928 12.5696 32.8192 0 45.2864-12.416 12.5696-32.7424 12.5696-45.2608 0L632.5504 683.7504C620.0576 671.2576 620.0576 650.9824 632.5504 638.464" p-id="8803" fill="#999999"></path></svg>