<?xml version="1.0" encoding="UTF-8"?>
<svg width="48px" height="45px" viewBox="0 0 48 45" version="1.1" xmlns="http://www.w3.org/2000/svg" xmlns:xlink="http://www.w3.org/1999/xlink">
    <!-- Generator: Sketch 46.2 (44496) - http://www.bohemiancoding.com/sketch -->
    <title>icon_zhjy</title>
    <desc>Created with Sketch.</desc>
    <defs></defs>
    <g id="效果图" stroke="none" stroke-width="1" fill="none" fill-rule="evenodd">
        <g id="首页展开" transform="translate(-448.000000, -558.000000)" fill="#09C7D1">
            <g id="功能区-copy" transform="translate(1.000000, 456.000000)">
                <g id="功能按钮" transform="translate(35.466667, 78.000000)">
                    <g id="Group-4-Copy-2" transform="translate(379.662222, 0.000000)">
                        <g id="Group-12" transform="translate(31.320000, 24.000000)">
                            <path d="M3.48656942,26.6688122 C3.95613902,26.4497697 4.47989535,26.3274407 5.03222312,26.3274407 L44.6957787,26.3274407 C46.7174172,26.3274407 48.3562791,27.9663026 48.3562791,29.9879412 C48.3562791,32.0095797 46.7174172,33.6484416 44.6957787,33.6484416 L44.6957787,33.6484416 L13.1669396,33.6484416 L17.6711299,38.1526318 C19.1006442,39.5821462 19.1006442,41.8998468 17.6711299,43.3293612 C16.2416156,44.7588755 13.9239149,44.7588755 12.4944006,43.3293612 L1.93387275,32.7688333 C0.504358421,31.339319 0.504358421,29.0216183 1.93387275,27.592104 L1.93387275,27.592104 L1.93387275,27.592104 C2.38231275,27.143664 2.91815763,26.8359001 3.48656942,26.6688122 Z M36.3382418,12.9056059 L5.03222312,12.9056059 L5.03222312,12.9056059 C3.01058457,12.9056059 1.37172272,14.5444678 1.37172272,16.5661063 C1.37172272,18.5877449 3.01058457,20.2266067 5.03222312,20.2266067 L44.6957787,20.2266067 C46.7174172,20.2266067 48.3562791,18.5877449 48.3562791,16.5661063 L48.3562791,16.5661063 C48.3562791,15.4973902 47.8982848,14.5356443 47.167861,13.8664336 C46.9907863,13.3783967 46.7065738,12.9204794 46.3152235,12.529129 L46.3152235,12.529129 L35.7546956,1.96860116 L35.7546956,1.96860116 C34.3251813,0.539086831 32.0074806,0.539086831 30.5779663,1.96860116 C29.148452,3.39811549 29.148452,5.71581615 30.5779663,7.14533048 L36.3382418,12.9056059 Z" id="icon_zhjy"></path>
                        </g>
                    </g>
                </g>
            </g>
        </g>
    </g>
</svg>