<?xml version="1.0" standalone="no"?><!DOCTYPE svg PUBLIC "-//W3C//DTD SVG 1.1//EN" "http://www.w3.org/Graphics/SVG/1.1/DTD/svg11.dtd"><svg t="1507550090036" class="icon" style="" viewBox="0 0 1024 1024" version="1.1" xmlns="http://www.w3.org/2000/svg" p-id="28933" xmlns:xlink="http://www.w3.org/1999/xlink" width="256" height="256"><defs><style type="text/css"></style></defs><path d="M969.452663 948.21292 803.729248 782.490527c39.983643-41.857317 71.197552-90.073458 92.852758-143.473669 22.201651-54.749952 33.459043-112.591311 33.459043-171.917488 0-59.3272-11.257391-117.16856-33.459043-171.917488-22.99369-56.70242-56.761772-107.561761-100.365872-151.166885-43.605124-43.605124-94.464465-77.373205-151.166885-100.366895C590.30032 21.446451 532.457938 10.18906 473.131761 10.18906c-59.3272 0-117.16856 11.256368-171.917488 33.459043-56.70242 22.99369-107.561761 56.761772-151.166885 100.366895s-77.373205 94.464465-100.366895 151.166885c-22.201651 54.748928-33.459043 112.590288-33.459043 171.917488 0 59.326177 11.256368 117.16856 33.459043 171.917488 22.99369 56.701396 56.761772 107.560738 100.366895 151.166885 43.605124 43.6041 94.464465 77.372182 151.166885 100.365872 54.748928 22.201651 112.590288 33.459043 171.917488 33.459043 59.326177 0 117.16856-11.257391 171.917488-33.459043 37.836747-15.343453 73.068156-35.492352 105.282858-60.153008l168.467923 168.467923L969.452663 948.21292zM473.131761 852.377224c-102.911858 0-199.663412-40.075741-272.432763-112.845091-72.76935-72.76935-112.845091-169.520905-112.845091-272.432763s40.075741-199.663412 112.845091-272.432763c72.76935-72.76935 169.520905-112.845091 272.432763-112.845091s199.663412 40.075741 272.432763 112.845091c72.76935 72.76935 112.845091 169.520905 112.845091 272.432763s-40.075741 199.663412-112.845091 272.432763S576.043618 852.377224 473.131761 852.377224z" p-id="28934" fill="#cccccc"></path></svg>