<?xml version="1.0" standalone="no"?><!DOCTYPE svg PUBLIC "-//W3C//DTD SVG 1.1//EN" "http://www.w3.org/Graphics/SVG/1.1/DTD/svg11.dtd"><svg t="1508144482125" class="icon" style="" viewBox="0 0 1024 1024" version="1.1" xmlns="http://www.w3.org/2000/svg" p-id="3993" xmlns:xlink="http://www.w3.org/1999/xlink" width="256" height="256"><defs><style type="text/css"></style></defs><path d="M1023.686504 195.309268 914.758543 549.463415c-33.761157 55.171122-72.803523 49.976195-72.345336 49.976195L303.826296 599.43961l12.901585 74.926829 573.91555 0c29.975084 0 29.975084 74.901854 0 74.901854l-602.877799 0c-0.361727 0-32.483056-5.819317-48.230224-49.926244L131.740857 74.926829l-109.241457 0c-29.975084 0-29.975084-74.926829 0-74.926829l120.57556 0c19.798507 0 53.029131-1.024 57.152815 23.077463L295.193086 524.487805l547.196006 0c-0.04823-0.79922 105.214234-299.707317 105.214234-299.707317L335.995855 224.780488c-29.975084 0-29.975084-74.926829 0-74.926829l651.108023 0C989.105433 149.853659 1027.737842 155.573073 1023.686504 195.309268zM335.995855 824.195122c53.270282 0 96.460448 44.706341 96.460448 99.877463 0 55.196098-43.190166 99.927415-96.460448 99.927415s-96.460448-44.731317-96.460448-99.927415C239.535407 868.926439 282.725573 824.195122 335.995855 824.195122zM335.995855 961.560976c19.967313 0 36.172668-16.78361 36.172668-37.48839 0-20.679805-16.205355-37.463415-36.172668-37.463415s-36.172668 16.78361-36.172668 37.463415C299.823187 944.802341 316.004427 961.560976 335.995855 961.560976zM745.952759 924.097561c0-55.171122 43.190166-99.877463 96.460448-99.877463s96.460448 44.706341 96.460448 99.877463c0 55.196098-43.190166 99.927415-96.460448 99.927415S745.952759 979.268683 745.952759 924.097561zM878.585875 924.097561c0-20.679805-16.205355-37.463415-36.172668-37.463415s-36.172668 16.78361-36.172668 37.463415c0 20.70478 16.205355 37.48839 36.172668 37.48839S878.585875 944.802341 878.585875 924.097561z" p-id="3994" fill="#666666"></path></svg>