<?xml version="1.0" standalone="no"?><!DOCTYPE svg PUBLIC "-//W3C//DTD SVG 1.1//EN" "http://www.w3.org/Graphics/SVG/1.1/DTD/svg11.dtd"><svg t="1507549814070" class="icon" style="" viewBox="0 0 1024 1024" version="1.1" xmlns="http://www.w3.org/2000/svg" p-id="26882" xmlns:xlink="http://www.w3.org/1999/xlink" width="256" height="256"><defs><style type="text/css"></style></defs><path d="M512 954.181818a442.181818 442.181818 0 1 1 442.181818-442.181818 442.181818 442.181818 0 0 1-442.181818 442.181818z m0-837.818182a395.636364 395.636364 0 1 0 395.636364 395.636364A395.636364 395.636364 0 0 0 512 116.363636z" fill="#09c7d1" p-id="26883"></path><path d="M794.530909 395.636364a23.272727 23.272727 0 0 0-23.272727-23.272728 23.272727 23.272727 0 0 0-15.127273 5.818182l-1.629091 1.163637-287.185454 286.487272L291.141818 488.727273a23.272727 23.272727 0 0 0-16.989091-7.68 23.272727 23.272727 0 0 0-23.272727 23.272727 23.272727 23.272727 0 0 0 5.818182 15.825455L434.501818 698.181818l32.814546 32.814546L500.130909 698.181818l285.090909-284.858182 3.490909-3.258181a23.272727 23.272727 0 0 0 5.818182-14.429091z" fill="#09c7d1" p-id="26884"></path></svg>