<?xml version="1.0" standalone="no"?><!DOCTYPE svg PUBLIC "-//W3C//DTD SVG 1.1//EN" "http://www.w3.org/Graphics/SVG/1.1/DTD/svg11.dtd"><svg t="1508140107109" class="icon" style="" viewBox="0 0 1040 1024" version="1.1" xmlns="http://www.w3.org/2000/svg" p-id="2372" xmlns:xlink="http://www.w3.org/1999/xlink" width="260" height="256"><defs><style type="text/css"></style></defs><path d="M69.191872 76.526931c-38.141692 0-69.188802 31.04711-69.188802 69.188802s31.04711 69.188802 69.188802 69.188802c38.141692 0 69.188802-31.04711 69.188802-69.188802S107.334587 76.526931 69.191872 76.526931z" p-id="2373" fill="#ffffff"></path><path d="M271.523043 180.310645l717.837019 0c19.1215 0 34.594913-15.473413 34.594913-34.594913s-15.473413-34.594913-34.594913-34.594913L271.523043 111.12082c-19.087731 0-34.594913 15.473413-34.594913 34.594913S252.435313 180.310645 271.523043 180.310645z" p-id="2374" fill="#ffffff"></path><path d="M69.191872 442.810175c-38.141692 0-69.188802 31.048133-69.188802 69.188802 0 38.141692 31.04711 69.188802 69.188802 69.188802 38.141692 0 69.188802-31.04711 69.188802-69.188802C138.380674 473.858308 107.334587 442.810175 69.191872 442.810175z" p-id="2375" fill="#ffffff"></path><path d="M989.360062 477.404064 271.523043 477.404064c-19.087731 0-34.594913 15.473413-34.594913 34.594913 0 19.122523 15.506159 34.594913 34.594913 34.594913l717.837019 0c19.1215 0 34.594913-15.47239 34.594913-34.594913C1023.953951 492.8785 1008.480538 477.404064 989.360062 477.404064z" p-id="2376" fill="#ffffff"></path><path d="M69.191872 809.093419c-38.141692 0-69.188802 31.04711-69.188802 69.188802s31.04711 69.188802 69.188802 69.188802c38.141692 0 69.188802-31.04711 69.188802-69.188802S107.334587 809.093419 69.191872 809.093419z" p-id="2377" fill="#ffffff"></path><path d="M989.360062 843.688331 271.523043 843.688331c-19.087731 0-34.594913 15.47239-34.594913 34.594913 0 19.1215 15.506159 34.594913 34.594913 34.594913l717.837019 0c19.1215 0 34.594913-15.473413 34.594913-34.594913C1023.953951 859.160721 1008.480538 843.688331 989.360062 843.688331z" p-id="2378" fill="#ffffff"></path></svg>