<?xml version="1.0" standalone="no"?><!DOCTYPE svg PUBLIC "-//W3C//DTD SVG 1.1//EN" "http://www.w3.org/Graphics/SVG/1.1/DTD/svg11.dtd"><svg t="1508997244467" class="icon" style="" viewBox="0 0 1024 1024" version="1.1" xmlns="http://www.w3.org/2000/svg" p-id="2899" xmlns:xlink="http://www.w3.org/1999/xlink" width="200" height="200"><defs><style type="text/css"></style></defs><path d="M512.12288 0.50176c282.48064 0 511.3856 229.0176 511.3856 511.49824v0.12288c-0.13312 282.48064-229.16096 511.3856-511.63136 511.3856-282.48064 0-511.3856-229.16096-511.3856-511.63136C0.50176 229.39648 229.66272 0.49152 512.13312 0.49152zM488.0896 615.3216h47.8208a11.1616 11.1616 0 0 0 10.99776-10.48576L562.6368 264.192a19.63008 19.63008 0 0 0-19.69152-20.71552h-62.02368a19.5584 19.5584 0 0 0-19.69152 20.71552l15.72864 340.65408a11.3664 11.3664 0 0 0 11.13088 10.48576z m-27.7504 113.5616a51.6608 51.6608 0 1 0 103.3216 0 51.6608 51.6608 0 0 0-103.3216 0z" fill="#cdcdcd" p-id="2900"></path></svg>