<?xml version="1.0" standalone="no"?><!DOCTYPE svg PUBLIC "-//W3C//DTD SVG 1.1//EN" "http://www.w3.org/Graphics/SVG/1.1/DTD/svg11.dtd"><svg t="1507885081847" class="icon" style="" viewBox="0 0 1024 1024" version="1.1" xmlns="http://www.w3.org/2000/svg" p-id="3069" xmlns:xlink="http://www.w3.org/1999/xlink" width="256" height="256"><defs><style type="text/css"></style></defs><path d="M512 0C229.537684 0 0 210.782316 0 469.908211c0 259.152842 217.303579 453.416421 505.748211 453.416421 22.743579 0 61.736421-1.697684 94.154105-5.093053 7.895579-0.835368 15.898947 1.158737 22.474105 5.685895l138.778947 92.429473a45.082947 45.082947 0 0 0 46.969264 1.994106c15.252211-8.515368 24.468211-24.899368 23.902315-42.361264l-4.257684-140.530526a39.558737 39.558737 0 0 1 14.201263-32.14821C961.104842 707.422316 1024 592.222316 1024 469.908211 1024 210.782316 794.408421 0 512 0z m294.426947 758.891789a96.741053 96.741053 0 0 0-35.328 78.201264l3.745685 119.781052-120.643369-80.518737a90.947368 90.947368 0 0 0-60.30821-14.794105c-30.154105 3.422316-66.56 4.850526-87.902316 4.850526-256 0-448.835368-170.684632-448.835369-396.530526S261.093053 56.885895 512 56.885895s455.114105 185.155368 455.114105 412.995368c0 105.849263-54.056421 203.129263-160.687158 289.010526z m-294.480842-120.32a34.492632 34.492632 0 0 0-34.465684 34.357895c0.053895 9.162105 3.691789 17.946947 10.159158 24.360421 6.359579 6.359579 15.306105 10.213053 24.306526 10.213053a34.869895 34.869895 0 0 0 34.573474-34.573474 34.681263 34.681263 0 0 0-10.159158-24.360421 35.274105 35.274105 0 0 0-24.414316-9.997474z m19.56379-382.733473c-90.974316-2.883368-145.623579 41.472-164.028632 125.197473h0.10779a28.456421 28.456421 0 0 0 55.754105 10.85979c14.416842-58.368 46.942316-86.797474 97.468631-85.423158 46.834526 2.829474 72.434526 25.519158 76.692211 68.042105 2.802526 29.938526-17.731368 59.041684-61.790316 87.471158-36.944842 25.519158-54.676211 58.853053-53.248 100.001684v20.156632c-0.080842 0.565895-0.080842 1.212632-0.080842 1.832421 0 13.473684 10.994526 24.468211 24.602947 24.468211a24.549053 24.549053 0 0 0 24.576-24.468211l-0.053894-2.101895v-15.629473c-1.589895-31.258947 14.120421-57.424842 46.915368-78.740211 55.269053-34.115368 81.515789-73.108211 78.632421-117.167158-7.060211-69.497263-49.017263-110.241684-125.547789-114.499368z" p-id="3070" fill="#ffffff"></path></svg>