<?xml version="1.0" standalone="no"?><!DOCTYPE svg PUBLIC "-//W3C//DTD SVG 1.1//EN" "http://www.w3.org/Graphics/SVG/1.1/DTD/svg11.dtd"><svg t="1507549221296" class="icon" style="" viewBox="0 0 1024 1024" version="1.1" xmlns="http://www.w3.org/2000/svg" p-id="5238" xmlns:xlink="http://www.w3.org/1999/xlink" width="256" height="256"><defs><style type="text/css"></style></defs><path d="M525.548062 616.180757c-32.770358 0-53.355185 16.193821-61.729923 48.547693-2.269693 8.305153-3.437286 17.701151-3.437286 28.216645 0 45.169759 17.917068 70.016657 53.707203 74.546833l11.460006 1.121544c32.000831 0 52.583612-15.053857 61.708434-45.169759 2.313695-9.762341 3.439332-19.938098 3.439332-30.498618 0-43.671639-16.72901-68.508303-50.27094-74.52739-4.562922-1.517563-9.521864-2.27481-14.855336-2.27481L525.548062 616.180757zM699.236893 193.9462c9.870812 33.111119 15.22782 61.711504 15.999392 85.808318 0.814552 24.095791-1.12666 42.154076-5.687536 54.185087-4.605901 12.039197-11.637038 21.652136-21.134343 28.805046-9.520841 7.142677-17.498536 11.280928-23.9996 12.422937-6.458085 1.143033-13.531178 1.703805-21.135366 1.703805-33.543977 0.74906-60.362786-7.150864-80.550571-23.692608-20.187785-16.551978-32.749892-37.820374-37.708833-63.818491-4.936429-25.997094-6.2831-54.213739-3.967358-84.684728 2.293229-30.470989 7.824199-59.455113 16.572444-86.930885 8.728802-27.476795 17.8526-51.001581 27.393907-70.557986 9.543354-19.539009 18.139126-31.210839 25.743314-34.995025-0.773619 0-5.135974 0.38374-13.136182 1.105171-8.022721 0.75827-16.197914 1.685385-24.573675 2.827395-8.397251 1.122567-19.23918 3.210112-32.595372 6.205329-13.332656 3.02387-26.468838 6.77838-39.425941 11.319813-12.93766 4.520967-27.592428 10.915607-43.989887 19.181875-16.374946 8.256034-31.978319 17.655102-46.831608 28.214599-14.855336 10.55131-30.458709 23.732517-46.855144 39.534412-16.373922 15.792685-31.779797 33.112142-46.25958 51.946093-21.333888 30.855752-34.490535 62.283532-39.470967 94.253664-4.936429 31.978319-4.936429 58.715263 0 80.171947 4.980431 21.456684 9.1678 41.584094 12.605086 60.420091 3.460822 18.798135 0.970094 34.217313-7.404644 46.273906-8.41874 12.038174-25.917276 21.437242-52.584636 28.196179-17.542538 3.03308-31.426757-1.291412-41.71917-12.95608-10.292414-11.655458-16.750499-26.708292-19.416212-45.150316-2.665713-18.451234-3.791349-36.155455-3.459798-53.089126 0.397043-16.934694 2.093684-31.408337 5.179976-43.437302-12.187577-0.76748-30.854728 19.556405-56.000432 60.962443-48.749284 79.80765-75.41562 163.360602-80.000032 250.66704-7.648191 145.252175 56.373938 247.996211 191.999872 308.208571 86.038562 37.632085 199.163015 56.469106 339.348802 56.469106 227.022527 1.51654 372.917338-61.336974 437.664991-188.55133 46.436612-89.580225 47.581692-196.085934 3.415796-319.52736-35.062564-97.865935-86.478584-176.886663-154.268526-237.119489-47.25321-40.639582-91.814102-62.095243-133.686768-64.333214L699.236893 193.9462zM356.4242 826.207192 293.569664 826.207192 293.569664 717.819622 181.570847 717.819622l0 108.387569L118.7378 826.207192 118.7378 555.24492l62.832024 0 0 108.388593L293.569664 663.633512l0-108.388593 62.854537 0L356.4242 826.207192 356.4242 826.207192zM622.099049 790.07118c-23.954575 24.097838-56.924477 36.136012-98.842169 36.136012-41.897226 0-74.843592-12.255115-98.844216-36.727483-23.954575-24.450878-35.94363-57.375755-35.94363-98.772584 0-42.155099 11.988032-75.267241 35.94363-99.344612 24.000624-24.077372 56.94699-36.117592 98.844216-36.117592 41.917692-0.019443 74.887594 12.040221 98.842169 36.117592 24.001647 24.077372 35.990702 57.189514 35.990702 99.344612C658.089751 732.863247 646.100696 765.976412 622.099049 790.07118L622.099049 790.07118zM927.797449 611.676164l-94.877881 0 0 214.531028-63.978127 0L768.941442 611.676164l-94.875834 0 0-56.487525 253.685793 0 0 56.487525L927.797449 611.676164zM927.797449 611.676164" p-id="5239" fill="#ff8a00"></path></svg>