<?xml version="1.0" standalone="no"?><!DOCTYPE svg PUBLIC "-//W3C//DTD SVG 1.1//EN" "http://www.w3.org/Graphics/SVG/1.1/DTD/svg11.dtd"><svg t="1507885153028" class="icon" style="" viewBox="0 0 1024 1024" version="1.1" xmlns="http://www.w3.org/2000/svg" p-id="5585" xmlns:xlink="http://www.w3.org/1999/xlink" width="256" height="256"><defs><style type="text/css"></style></defs><path d="M798.2 377.4c8.3-8.3 8.3-21.7 0-30L513.8 63 229.4 347.5c-8.3 8.3-8.3 21.7 0 30s21.7 8.3 30 0L513.8 123l254.4 254.5c8.4 8.2 21.7 8.2 30-0.1zM398.4 715.6h-27.7v86.6c0 44.8-7.7 102-112.2 136.1 6 6 13.7 16.6 17.1 22.6 107.1-40.5 122.9-105.4 122.9-158.7v-86.6z" fill="#ffffff" p-id="5586"></path><path d="M494.8 616.2V591h-221v25.2h91.3c-3.4 14.5-8.1 32-12.8 45.7h-61v199.7h26.4V688.3h132.7v172.4h27.7V661.9h-99c5.5-13.7 11.5-30.3 17.1-45.7h98.6zM388.2 887.6c30.7 21.8 69.5 53.3 88.3 73.4l19.2-20.9c-19.2-20.5-58-50.4-89.2-70.8l-18.3 18.3zM265.7 602.6H108.2v26.9h70.4v277.8c0 6.8-2.5 9-9.8 9.4-6.4 0.4-29.9 0.4-56.3-0.4 4.7 8.1 9.4 20.1 11.1 28.2 33.7 0.4 54.2-0.4 66.6-5.5 12-4.7 16.2-13.2 16.2-31.6v-278h59.3v-26.8zM749.4 622.6h-79.8c-4.7-14.5-14.1-35.8-22.6-52.5l-25.6 7.3c6.8 13.7 14.1 31.1 19.2 45.2h-90.1v26h198.8v-26zM730.2 658.5l-28.6-6.4c-6.8 24.8-20.5 60.6-32 84.9H537.7v26h221.5v-26h-61.9c10.7-23.1 22.6-52.9 32.9-78.5zM896.2 593.6l-4.3 1.3H782.2v365.3h25.6V620.9h72.1c-12 33.3-29 78.9-45.7 115.6 38.8 39.7 49.9 70.8 49.9 97.7 0.4 14.9-2.6 28.6-11.1 34.1-5.1 3-11.1 4.3-17.5 4.7-9 0.4-21.8 0.4-35-0.9 5.1 8.1 7.7 19.2 8.5 26.9 12 0.9 26 0.9 36.7-0.4 9.8-0.9 19.2-3.8 26-8.5 13.2-9 18.8-29.4 18.8-53.3 0-29.9-9.8-62.7-48.6-103.3 18.3-39.7 38.4-88.3 53.8-127.2l-19.5-12.7zM562.9 957.2h27.3v-20.5H711v17.1h27.7V803.5H562.9v153.7z m27.3-128.1H711V911H590.2v-81.9z" fill="#ffffff" p-id="5587"></path><path d="M604.3 734.4l26-7.3c-4.3-20.1-15.8-50.8-29-73.8l-24.8 6c12.4 23.9 23.9 54.6 27.8 75.1z" fill="#ffffff" p-id="5588"></path></svg>