<?xml version="1.0" encoding="UTF-8"?>
<svg width="51px" height="36px" viewBox="0 0 51 36" version="1.1" xmlns="http://www.w3.org/2000/svg" xmlns:xlink="http://www.w3.org/1999/xlink">
    <!-- Generator: Sketch 46.2 (44496) - http://www.bohemiancoding.com/sketch -->
    <title>icon_xc</title>
    <desc>Created with Sketch.</desc>
    <defs></defs>
    <g id="效果图" stroke="none" stroke-width="1" fill="none" fill-rule="evenodd">
        <g id="首页展开" transform="translate(-265.000000, -564.000000)" fill="#09C7D1">
            <g id="功能区-copy" transform="translate(1.000000, 456.000000)">
                <g id="功能按钮" transform="translate(35.466667, 78.000000)">
                    <g id="Group-4-Copy" transform="translate(189.831111, 0.000000)">
                        <g id="Group-9" transform="translate(22.293333, 28.000000)">
                            <g id="icon_xc" transform="translate(16.213333, 2.000000)">
                                <path d="M51.0437209,20.7888371 L51.0437209,13.75 L0.377054264,13.75 L0.377054264,31 C0.377054264,33.209139 2.16791526,35 4.37705426,35 L4.37705426,35 L34.3615862,35 C32.9109412,33.1834138 32.0437209,30.880482 32.0437209,28.375 C32.0437209,22.5069745 36.8006955,17.75 42.6687209,17.75 L43.6045795,17.75 L43.6045795,17.75 C46.5012006,17.75 49.1270935,18.9091248 51.0437209,20.7888371 Z M51.0437209,8.75 L51.0437209,4 C51.0437209,1.790861 49.2528599,-4.33003142e-15 47.0437209,0 L4.37705426,0 L4.37705426,0 C2.16791526,4.05812251e-16 0.377054264,1.790861 0.377054264,4 L0.377054264,4 L0.377054264,8.75 L51.0437209,8.75 Z" id="Combined-Shape-Copy-2"></path>
                                <rect id="Rectangle-13" x="36.48" y="26.25" width="13.9333333" height="3.75" rx="1.875"></rect>
                                <rect id="Rectangle-13-Copy" transform="translate(43.446667, 28.125000) rotate(-270.000000) translate(-43.446667, -28.125000) " x="36.48" y="26.25" width="13.9333333" height="3.75" rx="1.875"></rect>
                            </g>
                        </g>
                    </g>
                </g>
            </g>
        </g>
    </g>
</svg>