<?xml version="1.0" standalone="no"?><!DOCTYPE svg PUBLIC "-//W3C//DTD SVG 1.1//EN" "http://www.w3.org/Graphics/SVG/1.1/DTD/svg11.dtd"><svg t="1507885113324" class="icon" style="" viewBox="0 0 1024 1024" version="1.1" xmlns="http://www.w3.org/2000/svg" p-id="4340" xmlns:xlink="http://www.w3.org/1999/xlink" width="256" height="256"><defs><style type="text/css"></style></defs><path d="M907.152 156.784h-24.688v48h24.688c20.32 0 36.848 14.176 36.848 31.584v611.408c0 17.408-16.528 31.568-36.848 31.568H116.768c-20.288 0-36.784-14.16-36.784-31.568V236.368c0-17.408 16.496-31.584 36.784-31.584h368.624v-48H116.768c-46.752 0-84.784 35.696-84.784 79.584v611.408c0 43.872 38.032 79.568 84.784 79.568h790.384c46.784 0 84.848-35.68 84.848-79.568V236.368c0-43.872-38.064-79.584-84.848-79.584z" p-id="4341" fill="#ffffff"></path><path d="M228.864 436.448h182.416a24 24 0 1 0 0-48H228.864a24 24 0 1 0 0 48zM228.864 537.104a24 24 0 1 0 0 48h243.2a24 24 0 1 0 0-48h-243.2zM204.864 709.76a24 24 0 0 0 24 24h304a24 24 0 0 0 0-48h-304a24 24 0 0 0-24 24zM573.472 538.944v0.72h0.416l114.8 191.456 114.784-191.456h0.4v-0.688l0.368-0.624h-0.368V210.384c0-63.04-51.664-114.32-115.184-114.32-63.536 0-115.216 51.28-115.216 114.32v327.968h-0.352l0.352 0.592z m115.216 129.952l-59.104-98.544h118.176l-59.072 98.544z m-67.216-458.512c0-36.576 30.16-66.32 67.216-66.32 37.04 0 67.184 29.744 67.184 66.32v327.968h-134.4V210.384z" p-id="4342" fill="#ffffff"></path></svg>