<?xml version="1.0" standalone="no"?><!DOCTYPE svg PUBLIC "-//W3C//DTD SVG 1.1//EN" "http://www.w3.org/Graphics/SVG/1.1/DTD/svg11.dtd"><svg t="1507549281849" class="icon" style="" viewBox="0 0 1024 1024" version="1.1" xmlns="http://www.w3.org/2000/svg" p-id="6031" xmlns:xlink="http://www.w3.org/1999/xlink" width="256" height="256"><defs><style type="text/css"></style></defs><path d="M970.397175 446.172759 598.96977 59.929928c-23.041786-23.924899-53.93233-37.21867-86.970794-37.21867-33.042557 0-63.931055 13.163811-86.968747 37.21867L53.723575 446.172759c-38.356586 39.878243-33.419134 74.31045-27.092032 88.74316 4.558829 10.256598 19.748786 38.231743 63.677275 38.231743l54.437843 0 0 297.117978c0 67.470671 48.483224 131.022079 117.347638 131.022079l158.119227 0L420.213527 686.827771c0-33.672914-5.063319-52.538587 29.375028-52.538587l124.944664 0c34.434254 0 29.370935 18.735713 29.370935 52.538587L603.904153 1001.287719l157.992337 0c68.864414 0 117.353778-63.550385 117.353778-131.022079L879.250268 573.147662l54.43375 0c43.928488 0 59.120492-28.107151 63.675228-38.231743C1003.691465 520.483208 1008.628918 486.051001 970.397175 446.172759L970.397175 446.172759 970.397175 446.172759zM933.685042 512.005117l-115.705232 0 0 358.261547c0 33.670867-21.773909 69.75162-56.206116 69.75162l-96.849792 0L664.923902 686.827771c0-67.476811-21.648043-113.680109-90.51655-113.680109L449.461665 573.147662c-68.868507 0-90.518596 46.203298-90.518596 113.680109l0 253.316379L262.093277 940.14415c-34.432207 0-56.206116-36.080753-56.206116-69.75162L205.887161 512.130983l-115.705232 0c-1.137916 0-2.025123-4.182252-2.910283-4.308119 2.148943-3.671623 5.822612-13.036921 11.896958-19.370163L470.593961 102.468766c11.017938-11.647271 26.716478-18.608823 41.909505-18.482957 15.187911-0.125867 29.873378 6.964622 41.012066 18.482957l371.304607 385.860115c6.075369 6.327102 9.748015 15.696494 11.773138 19.370163-0.76134 0.12382-1.772366 4.299933-2.910283 4.299933L933.685042 512.005117 933.685042 512.005117zM933.685042 512.005117" p-id="6032" fill="#FFFFFF"></path></svg>