<?xml version="1.0" standalone="no"?><!DOCTYPE svg PUBLIC "-//W3C//DTD SVG 1.1//EN" "http://www.w3.org/Graphics/SVG/1.1/DTD/svg11.dtd"><svg t="1508141056679" class="icon" style="" viewBox="0 0 1024 1024" version="1.1" xmlns="http://www.w3.org/2000/svg" p-id="3845" xmlns:xlink="http://www.w3.org/1999/xlink" width="256" height="256"><defs><style type="text/css"></style></defs><path d="M512 896c-32.7424 0-64.6656-2.9696-95.6928-8.1152L192 1024v-226.5856C75.0592 715.3152 0 589.4144 0 448 0 200.576 229.2224 0 512 0s512 200.576 512 448S794.7776 896 512 896z m0-832c-247.424 0-448 171.9296-448 384 0 130.1248 75.6992 244.9152 191.2064 314.368l-2.0224 148.4288 150.656-90.5472c34.688 7.3984 70.784 11.7504 108.16 11.7504 247.424 0 448-171.9296 448-384 0-212.0704-200.576-384-448-384zM768 512a64 64 0 1 1 0-128 64 64 0 0 1 0 128z m-256 0a64 64 0 1 1 0-128 64 64 0 0 1 0 128z m-256 0a64 64 0 1 1 0-128 64 64 0 0 1 0 128z" fill="#FFFFFF" p-id="3846"></path></svg>