<?xml version="1.0" encoding="UTF-8"?>
<svg width="235px" height="240px" viewBox="0 0 235 240" version="1.1" xmlns="http://www.w3.org/2000/svg" xmlns:xlink="http://www.w3.org/1999/xlink">
    <!-- Generator: Sketch 46.2 (44496) - http://www.bohemiancoding.com/sketch -->
    <title>kongbai_dd</title>
    <desc>Created with Sketch.</desc>
    <defs>
        <polygon id="path-1" points="232.127213 0 232.127213 41.9672131 116.14577 41.9672131 0.164327869 41.9672131 0.164327869 0"></polygon>
    </defs>
    <g id="效果图" stroke="none" stroke-width="1" fill="none" fill-rule="evenodd">
        <g id="12_空白页面_2我的订单" transform="translate(-258.000000, -411.000000)">
            <g id="空白内容" transform="translate(149.000000, 411.000000)">
                <g id="kongbai_dd" transform="translate(106.000000, 0.000000)">
                    <g id="Group-46" transform="translate(4.000000, 0.466885)">
                        <g id="Group-3" transform="translate(1.311475, 196.721311)">
                            <mask id="mask-2" fill="white">
                                <use xlink:href="#path-1"></use>
                            </mask>
                            <g id="Clip-2"></g>
                            <path d="M232.127607,20.9836066 C232.127607,32.5731148 180.201049,41.9672131 116.145967,41.9672131 C52.0908852,41.9672131 0.164327869,32.5731148 0.164327869,20.9836066 C0.164327869,9.39409836 52.0908852,0 116.145967,0 C180.201049,0 232.127607,9.39409836 232.127607,20.9836066" id="Fill-1" fill="#E5E5E5" mask="url(#mask-2)"></path>
                        </g>
                        <path d="M204.17023,220.703738 L58.1597377,220.703738 C49.504,220.703738 42.4220328,213.62177 42.4220328,204.966033 L42.4220328,27.9470164 C42.4220328,19.2912787 49.504,12.2093115 58.1597377,12.2093115 L204.17023,12.2093115 C212.825967,12.2093115 219.907934,19.2912787 219.907934,27.9470164 L219.907934,204.966033 C219.907934,213.62177 212.825967,220.703738 204.17023,220.703738" id="Fill-4" fill="#FFFFFF"></path>
                        <path d="M204.17023,220.703738 L58.1597377,220.703738 C49.504,220.703738 42.4220328,213.62177 42.4220328,204.966033 L42.4220328,27.9470164 C42.4220328,19.2912787 49.504,12.2093115 58.1597377,12.2093115 L204.17023,12.2093115 C212.825967,12.2093115 219.907934,19.2912787 219.907934,27.9470164 L219.907934,204.966033 C219.907934,213.62177 212.825967,220.703738 204.17023,220.703738 Z" id="Stroke-6" stroke="#9FA0A0" stroke-width="2"></path>
                        <path d="M158.705836,23.2141639 L103.623869,23.2141639 C97.853377,23.2141639 93.1320656,18.4928525 93.1320656,12.7223607 L93.1320656,11.3361311 C93.1320656,5.56563934 97.853377,0.844327869 103.623869,0.844327869 L158.705836,0.844327869 C164.476328,0.844327869 169.197639,5.56563934 169.197639,11.3361311 L169.197639,12.7223607 C169.197639,18.4928525 164.476328,23.2141639 158.705836,23.2141639" id="Fill-8" fill="#FFFFFF"></path>
                        <path d="M158.705836,23.2141639 L103.623869,23.2141639 C97.853377,23.2141639 93.1320656,18.4928525 93.1320656,12.7223607 L93.1320656,11.3361311 C93.1320656,5.56563934 97.853377,0.844327869 103.623869,0.844327869 L158.705836,0.844327869 C164.476328,0.844327869 169.197639,5.56563934 169.197639,11.3361311 L169.197639,12.7223607 C169.197639,18.4928525 164.476328,23.2141639 158.705836,23.2141639 Z" id="Stroke-10" stroke="#9FA0A0" stroke-width="2"></path>
                        <path d="M187.99541,72.5378361 L74.3337705,72.5378361 C70.4872131,72.5378361 67.3396721,69.3902951 67.3396721,65.5437377 L67.3396721,65.5437377 C67.3396721,61.6958689 70.4872131,58.5483279 74.3337705,58.5483279 L187.99541,58.5483279 C191.841967,58.5483279 194.989508,61.6958689 194.989508,65.5437377 L194.989508,65.5437377 C194.989508,69.3902951 191.841967,72.5378361 187.99541,72.5378361" id="Fill-12" fill="#EFEFEF"></path>
                        <path d="M187.99541,106.636197 L74.3337705,106.636197 C70.4872131,106.636197 67.3396721,103.488656 67.3396721,99.6420984 L67.3396721,99.6420984 C67.3396721,95.7942295 70.4872131,92.6466885 74.3337705,92.6466885 L187.99541,92.6466885 C191.841967,92.6466885 194.989508,95.7942295 194.989508,99.6420984 L194.989508,99.6420984 C194.989508,103.488656 191.841967,106.636197 187.99541,106.636197" id="Fill-14" fill="#EFEFEF"></path>
                        <path d="M187.99541,138.985967 L74.3337705,138.985967 C70.4872131,138.985967 67.3396721,135.838426 67.3396721,131.991869 L67.3396721,131.991869 C67.3396721,128.144 70.4872131,124.996459 74.3337705,124.996459 L187.99541,124.996459 C191.841967,124.996459 194.989508,128.144 194.989508,131.991869 L194.989508,131.991869 C194.989508,135.838426 191.841967,138.985967 187.99541,138.985967" id="Fill-16" fill="#EFEFEF"></path>
                        <path d="M187.99541,169.587016 L74.3337705,169.587016 C70.4872131,169.587016 67.3396721,166.439475 67.3396721,162.592918 L67.3396721,162.592918 C67.3396721,158.745049 70.4872131,155.597508 74.3337705,155.597508 L187.99541,155.597508 C191.841967,155.597508 194.989508,158.745049 194.989508,162.592918 L194.989508,162.592918 C194.989508,166.439475 191.841967,169.587016 187.99541,169.587016" id="Fill-18" fill="#EFEFEF"></path>
                        <path d="M95.9328525,164.416787 C95.9328525,164.416787 103.820066,163.93941 110.035148,170.630557 C110.035148,170.630557 114.782689,167.060721 118.161049,173.817443 C119.754492,177.004328 115.611541,180.82859 110.353836,182.900721 C106.107279,184.572852 100.63318,178.439082 106.050885,173.340066 C106.050885,173.340066 105.413508,169.197115 94.7380984,168.002361 L95.9328525,164.416787 Z" id="Fill-20" fill="#FFFFFF"></path>
                        <path d="M95.9328525,164.416787 C95.9328525,164.416787 103.820066,163.93941 110.035148,170.630557 C110.035148,170.630557 114.782689,167.060721 118.161049,173.817443 C119.754492,177.004328 115.611541,180.82859 110.353836,182.900721 C106.107279,184.572852 100.63318,178.439082 106.050885,173.340066 C106.050885,173.340066 105.413508,169.197115 94.7380984,168.002361 L95.9328525,164.416787 Z" id="Stroke-22" stroke="#9FA0A0" stroke-width="2"></path>
                        <path d="M22.5737705,163.658885 C22.5737705,163.658885 14.6865574,163.181508 8.47147541,169.872656 C8.47147541,169.872656 3.72393443,166.30282 0.34557377,173.059541 C-1.24786885,176.246426 2.89508197,180.070689 8.15278689,182.14282 C12.3993443,183.814951 17.8734426,177.68118 12.4557377,172.582164 C12.4557377,172.582164 13.0931148,168.439213 23.7685246,167.244459 L22.5737705,163.658885 Z" id="Fill-24" fill="#FFFFFF"></path>
                        <path d="M22.5737705,163.658885 C22.5737705,163.658885 14.6865574,163.181508 8.47147541,169.872656 C8.47147541,169.872656 3.72393443,166.30282 0.34557377,173.059541 C-1.24786885,176.246426 2.89508197,180.070689 8.15278689,182.14282 C12.3993443,183.814951 17.8734426,177.68118 12.4557377,172.582164 C12.4557377,172.582164 13.0931148,168.439213 23.7685246,167.244459 L22.5737705,163.658885 Z" id="Stroke-26" stroke="#9FA0A0" stroke-width="2"></path>
                        <path d="M70.9905574,202.057836 L70.9905574,216.07882 C70.9905574,216.07882 70.6718689,217.024393 74.7794098,215.952918 C80.5905574,214.436852 87.6646557,214.183738 87.0325246,221.762754 C86.5079344,228.059148 84.6325246,229.468984 72.1276066,228.962754 C59.621377,228.457836 62.7794098,218.227016 66.0646557,217.468984 L66.0646557,200.920787 L70.9905574,200.920787 L70.9905574,202.057836 Z" id="Fill-28" fill="#FFFFFF"></path>
                        <path d="M70.9905574,202.057836 L70.9905574,216.07882 C70.9905574,216.07882 70.6718689,217.024393 74.7794098,215.952918 C80.5905574,214.436852 87.6646557,214.183738 87.0325246,221.762754 C86.5079344,228.059148 84.6325246,229.468984 72.1276066,228.962754 C59.621377,228.457836 62.7794098,218.227016 66.0646557,217.468984 L66.0646557,200.920787 L70.9905574,200.920787 L70.9905574,202.057836 Z" id="Stroke-30" stroke="#9FA0A0" stroke-width="2"></path>
                        <path d="M46.615082,202.057836 L46.615082,216.07882 C46.615082,216.07882 46.9337705,217.024393 42.8262295,215.952918 C37.015082,214.436852 29.9409836,214.183738 30.5731148,221.762754 C31.0977049,228.059148 32.9731148,229.468984 45.4780328,228.962754 C57.9842623,228.457836 54.8262295,218.227016 51.5409836,217.468984 L51.5409836,200.920787 L46.615082,200.920787 L46.615082,202.057836 Z" id="Fill-32" fill="#FFFFFF"></path>
                        <path d="M46.615082,202.057836 L46.615082,216.07882 C46.615082,216.07882 46.9337705,217.024393 42.8262295,215.952918 C37.015082,214.436852 29.9409836,214.183738 30.5731148,221.762754 C31.0977049,228.059148 32.9731148,229.468984 45.4780328,228.962754 C57.9842623,228.457836 54.8262295,218.227016 51.5409836,217.468984 L51.5409836,200.920787 L46.615082,200.920787 L46.615082,202.057836 Z" id="Stroke-34" stroke="#9FA0A0" stroke-width="2"></path>
                        <path d="M58.6832787,206.566164 C35.04,206.566164 15.8032787,187.330754 15.8032787,163.688787 C15.8032787,157.301902 17.1960656,151.137967 19.9422951,145.370098 C22.317377,139.68223 28.7029508,125.742557 36.1377049,120.393049 C42.0681967,116.125508 44.8996721,115.297967 47.6380328,114.496656 C50.322623,113.712393 52.8590164,112.97141 58.584918,108.89141 C59.2170492,108.440262 59.8740984,107.90518 60.5613115,107.347803 C63.0898361,105.29141 66.2386885,102.732721 70.1337705,102.732721 C74.3396721,102.732721 78.4655738,105.680918 82.7488525,111.746492 C88.6032787,120.044197 98.0970492,146.643541 98.4983607,147.77141 L98.8104918,148.648787 C100.634754,153.472393 101.559344,158.525508 101.559344,163.686164 C101.559344,187.329443 82.3252459,206.566164 58.6832787,206.566164" id="Fill-36" fill="#EFEFEF"></path>
                        <path d="M70.1344262,101.421639 C65.772459,101.421639 62.4242623,104.142951 59.7344262,106.330492 C59.052459,106.883934 58.4098361,107.405902 57.8236066,107.824262 C52.277377,111.775738 49.8459016,112.486557 47.2701639,113.239344 C44.4255738,114.07082 41.4839344,114.929836 35.3711475,119.328525 C27.957377,124.662295 21.772459,137.59082 18.7311475,144.864262 C15.9180328,150.792131 14.492459,157.123934 14.492459,163.686557 C14.492459,188.055082 34.3154098,207.876721 58.68,207.876721 C83.0485246,207.876721 102.871475,188.055082 102.871475,163.68918 C102.871475,159.30623 102.224918,154.996721 100.944918,150.834098 L100.948852,150.834098 L100.917377,150.743607 C100.628852,149.811148 100.308852,148.887869 99.9560656,147.971148 L99.7344262,147.331148 C99.3318033,146.196721 89.7790164,119.433443 83.8183607,110.990164 C79.2740984,104.552131 74.7980328,101.421639 70.1344262,101.421639 M70.1344262,104.04459 C73.3881967,104.04459 77.1718033,106.123279 81.6754098,112.503607 C87.4970492,120.748852 97.2636066,148.211148 97.2636066,148.211148 L97.2321311,148.211148 C99.1691803,153.000656 100.248525,158.222951 100.248525,163.686557 L100.248525,163.68918 C100.248525,186.549508 81.5442623,205.25377 58.682623,205.25377 L58.68,205.25377 C35.8196721,205.25377 17.1154098,186.549508 17.1154098,163.68918 L17.1154098,163.686557 C17.1154098,157.344262 18.5593443,151.325902 21.1272131,145.934426 C23.4104918,140.466885 29.7003279,126.64 36.9029508,121.457049 C48.4203279,113.171148 47.5534426,118.361967 59.344918,109.960656 C62.282623,107.867541 65.7213115,104.04459 70.1344262,104.04459" id="Fill-38" fill="#9FA0A0"></path>
                        <path d="M64.8725246,186.829115 L52.4908852,186.829115 C39.3577705,186.829115 28.611541,176.084197 28.611541,162.94977 L28.611541,162.94977 C28.611541,149.816656 39.3577705,139.071738 52.4908852,139.071738 L64.8725246,139.071738 C78.0056393,139.071738 88.7518689,149.816656 88.7518689,162.94977 L88.7518689,162.94977 C88.7518689,176.084197 78.0056393,186.829115 64.8725246,186.829115" id="Fill-40" fill="#FFFFFF"></path>
                        <path d="M64.8725246,186.829115 L52.4908852,186.829115 C39.3577705,186.829115 28.611541,176.084197 28.611541,162.94977 L28.611541,162.94977 C28.611541,149.816656 39.3577705,139.071738 52.4908852,139.071738 L64.8725246,139.071738 C78.0056393,139.071738 88.7518689,149.816656 88.7518689,162.94977 L88.7518689,162.94977 C88.7518689,176.084197 78.0056393,186.829115 64.8725246,186.829115 Z" id="Stroke-42" stroke="#9FA0A0" stroke-width="2"></path>
                        <path d="M50.2697705,176.326557 C50.2697705,176.326557 52.7956721,170.170492 59.7412459,170.170492 C66.5294426,170.170492 68.7392787,176.326557 68.7392787,176.326557" id="Stroke-44" stroke="#9FA0A0" stroke-width="2" stroke-linecap="round" stroke-linejoin="round"></path>
                    </g>
                    <g id="Group-51" transform="translate(45.967213, 151.286557)" fill="#9FA0A0">
                        <path d="M3.17088525,8.41127869 L3.17088525,8.41127869 C1.9092459,8.41127869 0.875803279,7.37783607 0.875803279,6.11619672 L0.875803279,3.16537705 C0.875803279,1.90242623 1.9092459,0.870295082 3.17088525,0.870295082 L3.17088525,0.870295082 C4.43383607,0.870295082 5.46596721,1.90242623 5.46596721,3.16537705 L5.46596721,6.11619672 C5.46596721,7.37783607 4.43383607,8.41127869 3.17088525,8.41127869" id="Fill-47"></path>
                        <path d="M30.2748852,8.41127869 L30.2748852,8.41127869 C29.0132459,8.41127869 27.9798033,7.37783607 27.9798033,6.11619672 L27.9798033,3.16537705 C27.9798033,1.90242623 29.0132459,0.870295082 30.2748852,0.870295082 L30.2748852,0.870295082 C31.5378361,0.870295082 32.5699672,1.90242623 32.5699672,3.16537705 L32.5699672,6.11619672 C32.5699672,7.37783607 31.5378361,8.41127869 30.2748852,8.41127869" id="Fill-49"></path>
                    </g>
                </g>
            </g>
        </g>
    </g>
</svg>