<?xml version="1.0" encoding="UTF-8"?>
<svg width="239px" height="240px" viewBox="0 0 239 240" version="1.1" xmlns="http://www.w3.org/2000/svg" xmlns:xlink="http://www.w3.org/1999/xlink">
    <!-- Generator: Sketch 46.2 (44496) - http://www.bohemiancoding.com/sketch -->
    <title>kongbai_xx</title>
    <desc>Created with Sketch.</desc>
    <defs></defs>
    <g id="效果图" stroke="none" stroke-width="1" fill="none" fill-rule="evenodd">
        <g id="09_站内信_3消息为空" transform="translate(-233.000000, -505.000000)">
            <g id="列表-copy-6" transform="translate(0.000000, 137.000000)">
                <g id="空白内容" transform="translate(233.000000, 368.000000)">
                    <g id="kongbai_xx">
                        <path d="M197.580729,0.292508287 C197.580729,0.292508287 159.931227,76.8074254 2.04304972,85.3095249" id="Stroke-1" stroke="#C9CACA"></path>
                        <path d="M237.659934,2.72154696 C237.659934,2.72154696 200.010431,79.2364641 42.1222541,87.7385635" id="Stroke-3" stroke="#C9CACA"></path>
                        <path d="M234.264265,218.22232 C234.264265,229.93989 191.182276,239.43779 138.037525,239.43779 C84.8914475,239.43779 41.8094586,229.93989 41.8094586,218.22232 C41.8094586,206.504751 84.8914475,197.006851 138.037525,197.006851 C191.182276,197.006851 234.264265,206.504751 234.264265,218.22232" id="Fill-5" fill="#E5E5E5"></path>
                        <path d="M221.133215,219.516464 L52.1626077,219.516464 C48.5161989,219.516464 45.5327735,216.533039 45.5327735,212.88663 L45.5327735,100.916685 C45.5327735,97.2702762 48.5161989,94.2868508 52.1626077,94.2868508 L134.898961,22.679337 L221.133215,94.2868508 C224.779624,94.2868508 227.76305,97.2702762 227.76305,100.916685 L227.76305,212.88663 C227.76305,216.533039 224.779624,219.516464 221.133215,219.516464" id="Fill-7" fill="#FFFFFF"></path>
                        <path d="M221.133215,219.516464 L52.1626077,219.516464 C48.5161989,219.516464 45.5327735,216.533039 45.5327735,212.88663 L45.5327735,100.916685 C45.5327735,97.2702762 48.5161989,94.2868508 52.1626077,94.2868508 L134.898961,22.679337 L221.133215,94.2868508 C224.779624,94.2868508 227.76305,97.2702762 227.76305,100.916685 L227.76305,212.88663 C227.76305,216.533039 224.779624,219.516464 221.133215,219.516464 Z" id="Stroke-9" stroke="#9FA0A0" stroke-width="2"></path>
                        <g id="Group-14" transform="translate(51.712707, 93.581436)">
                            <path d="M0.449502762,0.705016575 L170.698343,0.705016575" id="Fill-11" fill="#FFFFFF"></path>
                            <path d="M0.449502762,0.705016575 L170.698343,0.705016575" id="Stroke-13" stroke="#9FA0A0" stroke-width="2"></path>
                        </g>
                        <path d="M178.012906,98.0978122 L178.050033,98.0978122 C178.050033,98.0978122 166.921193,66.8102983 160.290033,57.4158232 C148.198541,40.2856575 140.663072,50.3749392 134.847381,54.5185856 C121.412685,64.0907403 122.40053,58.1769282 109.280088,67.6178122 C101.07368,73.5223425 93.9055028,89.2761547 91.3052818,95.504221 C88.3788729,101.646099 86.734674,108.504 86.734674,115.729193 L86.734674,115.733171 C86.734674,141.779138 108.044287,163.088751 134.090254,163.088751 L134.094232,163.088751 C160.140199,163.088751 181.449812,141.779138 181.449812,115.733171 L181.449812,115.729193 C181.449812,109.503779 180.220641,103.555492 178.012906,98.0978122" id="Fill-15" fill="#EFEFEF"></path>
                        <path d="M178.012906,98.0978122 L178.050033,98.0978122 C178.050033,98.0978122 166.921193,66.8102983 160.290033,57.4158232 C148.198541,40.2856575 140.663072,50.3749392 134.847381,54.5185856 C121.412685,64.0907403 122.40053,58.1769282 109.280088,67.6178122 C101.07368,73.5223425 93.9055028,89.2761547 91.3052818,95.504221 C88.3788729,101.646099 86.734674,108.504 86.734674,115.729193 L86.734674,115.733171 C86.734674,141.779138 108.044287,163.088751 134.090254,163.088751 L134.094232,163.088751 C160.140199,163.088751 181.449812,141.779138 181.449812,115.733171 L181.449812,115.729193 C181.449812,109.503779 180.220641,103.555492 178.012906,98.0978122 Z" id="Stroke-17" stroke="#9FA0A0" stroke-width="2"></path>
                        <path d="M141.145459,142.096972 L127.038497,142.096972 C112.076287,142.096972 99.8336354,129.85432 99.8336354,114.890785 L99.8336354,114.890785 C99.8336354,99.9285746 112.076287,87.6859227 127.038497,87.6859227 L141.145459,87.6859227 C156.108994,87.6859227 168.351646,99.9285746 168.351646,114.890785 L168.351646,114.890785 C168.351646,129.85432 156.108994,142.096972 141.145459,142.096972" id="Fill-19" fill="#FFFFFF"></path>
                        <path d="M141.145459,142.096972 L127.038497,142.096972 C112.076287,142.096972 99.8336354,129.85432 99.8336354,114.890785 L99.8336354,114.890785 C99.8336354,99.9285746 112.076287,87.6859227 127.038497,87.6859227 L141.145459,87.6859227 C156.108994,87.6859227 168.351646,99.9285746 168.351646,114.890785 L168.351646,114.890785 C168.351646,129.85432 156.108994,142.096972 141.145459,142.096972 Z" id="Stroke-21" stroke="#9FA0A0" stroke-width="2"></path>
                        <g id="Group-26" transform="translate(112.707182, 101.537238)">
                            <path d="M1.14099448,7.98855249 L8.94563536,0.183911602" id="Fill-23" fill="#FFFFFF"></path>
                            <path d="M1.14099448,7.98855249 L8.94563536,0.183911602" id="Stroke-25" stroke="#9FA0A0" stroke-width="2" stroke-linecap="round" stroke-linejoin="round"></path>
                        </g>
                        <g id="Group-30" transform="translate(112.707182, 101.537238)">
                            <path d="M9.1039558,8.14674033 L0.98240884,0.0251933702" id="Fill-27" fill="#FFFFFF"></path>
                            <path d="M9.1039558,8.14674033 L0.98240884,0.0251933702" id="Stroke-29" stroke="#9FA0A0" stroke-width="2" stroke-linecap="round" stroke-linejoin="round"></path>
                        </g>
                        <g id="Group-34" transform="translate(141.878453, 101.537238)">
                            <path d="M1.07933702,7.98855249 L8.8839779,0.183911602" id="Fill-31" fill="#FFFFFF"></path>
                            <path d="M1.07933702,7.98855249 L8.8839779,0.183911602" id="Stroke-33" stroke="#9FA0A0" stroke-width="2" stroke-linecap="round" stroke-linejoin="round"></path>
                        </g>
                        <g id="Group-38" transform="translate(141.878453, 101.537238)">
                            <path d="M9.04229834,8.14674033 L0.920751381,0.0251933702" id="Fill-35" fill="#FFFFFF"></path>
                            <path d="M9.04229834,8.14674033 L0.920751381,0.0251933702" id="Stroke-37" stroke="#9FA0A0" stroke-width="2" stroke-linecap="round" stroke-linejoin="round"></path>
                        </g>
                        <path d="M139.879293,126.575602 C139.879293,129.372066 137.613215,131.638144 134.816751,131.638144 C132.020287,131.638144 129.75421,129.372066 129.75421,126.575602 C129.75421,123.779138 132.020287,121.513061 134.816751,121.513061 C137.613215,121.513061 139.879293,123.779138 139.879293,126.575602" id="Fill-39" fill="#FFFFFF"></path>
                        <path d="M139.879293,126.575602 C139.879293,129.372066 137.613215,131.638144 134.816751,131.638144 C132.020287,131.638144 129.75421,129.372066 129.75421,126.575602 C129.75421,123.779138 132.020287,121.513061 134.816751,121.513061 C137.613215,121.513061 139.879293,123.779138 139.879293,126.575602 Z" id="Stroke-41" stroke="#9FA0A0" stroke-width="2" stroke-linecap="round" stroke-linejoin="round"></path>
                        <path d="M221.133215,219.516464 L52.1626077,219.516464 C48.5161989,219.516464 45.5327735,216.533039 45.5327735,212.88663 L45.5327735,100.916685 C45.5327735,97.2702762 48.5161989,94.2868508 52.1626077,94.2868508 L134.898961,157.937238 L221.133215,94.2868508 C224.779624,94.2868508 227.76305,97.2702762 227.76305,100.916685 L227.76305,212.88663 C227.76305,216.533039 224.779624,219.516464 221.133215,219.516464" id="Fill-43" fill="#FFFFFF"></path>
                        <path d="M221.133215,219.516464 L52.1626077,219.516464 C48.5161989,219.516464 45.5327735,216.533039 45.5327735,212.88663 L45.5327735,100.916685 C45.5327735,97.2702762 48.5161989,94.2868508 52.1626077,94.2868508 L134.898961,157.937238 L221.133215,94.2868508 C224.779624,94.2868508 227.76305,97.2702762 227.76305,100.916685 L227.76305,212.88663 C227.76305,216.533039 224.779624,219.516464 221.133215,219.516464 Z" id="Stroke-45" stroke="#9FA0A0" stroke-width="2"></path>
                        <path d="M0.976176796,204.269436 C0.976176796,204.269436 6.94302762,196.976619 9.59496133,194.324685 C12.246895,191.672751 20.2026961,191.672751 30.1474475,196.313635 C30.1474475,196.313635 26.8325304,209.573304 18.8767293,210.236287 C10.9209282,210.899271 0.976176796,204.269436 0.976176796,204.269436" id="Fill-47" fill="#EFEFEF"></path>
                        <path d="M0.976176796,204.269436 C0.976176796,204.269436 6.94302762,196.976619 9.59496133,194.324685 C12.246895,191.672751 20.2026961,191.672751 30.1474475,196.313635 C30.1474475,196.313635 26.8325304,209.573304 18.8767293,210.236287 C10.9209282,210.899271 0.976176796,204.269436 0.976176796,204.269436 Z" id="Stroke-49" stroke="#C9CACA"></path>
                        <path d="M21.3179669,172.597525 C21.3179669,172.597525 24.2960884,169.228243 25.6087956,168.011006 C26.9215028,166.795094 30.7164199,166.939624 35.3745414,169.332994 C35.3745414,169.332994 33.552663,175.596862 29.7471381,175.767912 C25.9402873,175.940287 21.3179669,172.597525 21.3179669,172.597525" id="Fill-51" fill="#EFEFEF"></path>
                        <path d="M21.3179669,172.597525 C21.3179669,172.597525 24.2960884,169.228243 25.6087956,168.011006 C26.9215028,166.795094 30.7164199,166.939624 35.3745414,169.332994 C35.3745414,169.332994 33.552663,175.596862 29.7471381,175.767912 C25.9402873,175.940287 21.3179669,172.597525 21.3179669,172.597525 Z" id="Stroke-53" stroke="#C9CACA"></path>
                    </g>
                </g>
            </g>
        </g>
    </g>
</svg>