<?xml version="1.0" encoding="UTF-8"?>
<svg width="200px" height="241px" viewBox="0 0 200 241" version="1.1" xmlns="http://www.w3.org/2000/svg" xmlns:xlink="http://www.w3.org/1999/xlink">
    <!-- Generator: Sketch 46.2 (44496) - http://www.bohemiancoding.com/sketch -->
    <title>kongbai_sp</title>
    <desc>Created with Sketch.</desc>
    <defs></defs>
    <g id="效果图" stroke="none" stroke-width="1" fill="none" fill-rule="evenodd">
        <g id="12_空白页面_1商品列表" transform="translate(-275.000000, -410.000000)">
            <g id="空白内容" transform="translate(127.000000, 410.000000)">
                <g id="kongbai_sp" transform="translate(128.000000, 0.000000)">
                    <g id="Group-3" transform="translate(0.000000, 0.327086)" fill="#E5E5E5">
                        <path d="M219.05312,217.942857 C219.05312,230.062171 174.494034,239.885714 119.527177,239.885714 C64.5589486,239.885714 19.9998629,230.062171 19.9998629,217.942857 C19.9998629,205.823543 64.5589486,196 119.527177,196 C174.494034,196 219.05312,205.823543 219.05312,217.942857" id="Fill-1"></path>
                    </g>
                    <path d="M167.933669,55.5258057 L167.97344,55.5258057 C167.97344,55.5258057 155.91584,21.62272 148.729554,11.4426057 C135.626926,-7.11830857 127.46144,3.81334857 121.159726,8.30340571 C106.602011,18.67552 107.673097,12.2682057 93.4541257,22.4976914 C84.5631543,28.8954057 76.7967543,45.9655771 73.9784686,52.7143771 C70.8077257,59.3712914 69.0248686,66.8016914 69.0248686,74.6311771 L69.0248686,74.6352914 C69.0248686,102.85792 92.1169829,125.950034 120.339611,125.950034 L120.343726,125.950034 C148.566354,125.950034 171.658469,102.85792 171.658469,74.6352914 L171.658469,74.6311771 C171.658469,67.8864914 170.326811,61.4394057 167.933669,55.5258057" id="Fill-4" fill="#EFEFEF"></path>
                    <path d="M167.933669,55.5258057 L167.97344,55.5258057 C167.97344,55.5258057 155.91584,21.62272 148.729554,11.4426057 C135.626926,-7.11830857 127.46144,3.81334857 121.159726,8.30340571 C106.602011,18.67552 107.673097,12.2682057 93.4541257,22.4976914 C84.5631543,28.8954057 76.7967543,45.9655771 73.9784686,52.7143771 C70.8077257,59.3712914 69.0248686,66.8016914 69.0248686,74.6311771 L69.0248686,74.6352914 C69.0248686,102.85792 92.1169829,125.950034 120.339611,125.950034 L120.343726,125.950034 C148.566354,125.950034 171.658469,102.85792 171.658469,74.6352914 L171.658469,74.6311771 C171.658469,67.8864914 170.326811,61.4394057 167.933669,55.5258057 Z" id="Stroke-6" stroke="#9FA0A0" stroke-width="2"></path>
                    <path d="M127.984366,103.202971 L112.698423,103.202971 C96.4840229,103.202971 83.2181943,89.9371429 83.2181943,73.7227429 L83.2181943,73.7227429 C83.2181943,57.5097143 96.4840229,44.2438857 112.698423,44.2438857 L127.984366,44.2438857 C144.198766,44.2438857 157.464594,57.5097143 157.464594,73.7227429 L157.464594,73.7227429 C157.464594,89.9371429 144.198766,103.202971 127.984366,103.202971" id="Fill-8" fill="#FFFFFF"></path>
                    <path d="M127.984366,103.202971 L112.698423,103.202971 C96.4840229,103.202971 83.2181943,89.9371429 83.2181943,73.7227429 L83.2181943,73.7227429 C83.2181943,57.5097143 96.4840229,44.2438857 112.698423,44.2438857 L127.984366,44.2438857 C144.198766,44.2438857 157.464594,57.5097143 157.464594,73.7227429 L157.464594,73.7227429 C157.464594,89.9371429 144.198766,103.202971 127.984366,103.202971 Z" id="Stroke-10" stroke="#9FA0A0" stroke-width="2"></path>
                    <path d="M108.236617,77.6989257 C108.236617,79.8095543 106.525074,81.5197257 104.415817,81.5197257 C102.305189,81.5197257 100.593646,79.8095543 100.593646,77.6989257 C100.593646,75.5882971 102.305189,73.8781257 104.415817,73.8781257 C106.525074,73.8781257 108.236617,75.5882971 108.236617,77.6989257" id="Fill-12" fill="#898989"></path>
                    <path d="M143.721509,77.6989257 C143.721509,79.8095543 142.009966,81.5197257 139.900709,81.5197257 C137.79008,81.5197257 136.078537,79.8095543 136.078537,77.6989257 C136.078537,75.5882971 137.79008,73.8781257 139.900709,73.8781257 C142.009966,73.8781257 143.721509,75.5882971 143.721509,77.6989257" id="Fill-14" fill="#898989"></path>
                    <g id="Group-19" transform="translate(96.800000, 63.298514)">
                        <path d="M0.790765714,3.29993143 C0.790765714,3.29993143 7.61499429,4.11867429 10.8899657,1.11661714" id="Fill-16" fill="#FFFFFF"></path>
                        <path d="M0.790765714,3.29993143 C0.790765714,3.29993143 7.61499429,4.11867429 10.8899657,1.11661714" id="Stroke-18" stroke="#9FA0A0" stroke-width="2" stroke-linecap="round" stroke-linejoin="round"></path>
                    </g>
                    <g id="Group-23" transform="translate(133.828571, 64.669943)">
                        <path d="M10.9845943,2.29248 C10.9845943,2.29248 4.16036571,3.11122286 0.885394286,0.109165714" id="Fill-20" fill="#FFFFFF"></path>
                        <path d="M10.9845943,2.29248 C10.9845943,2.29248 4.16036571,3.11122286 0.885394286,0.109165714" id="Stroke-22" stroke="#9FA0A0" stroke-width="2" stroke-linecap="round" stroke-linejoin="round"></path>
                    </g>
                    <g id="Group-27" transform="translate(109.142857, 87.984229)">
                        <path d="M1.27721143,5.81965714 C1.27721143,5.81965714 13.2881829,-4.82537143 25.0248686,6.6384" id="Fill-24" fill="#FFFFFF"></path>
                        <path d="M1.27721143,5.81965714 C1.27721143,5.81965714 13.2881829,-4.82537143 25.0248686,6.6384" id="Stroke-26" stroke="#9FA0A0" stroke-width="2" stroke-linecap="round" stroke-linejoin="round"></path>
                    </g>
                    <g id="Group-31" transform="translate(52.914286, 168.898514)">
                        <polyline id="Fill-28" fill="#FFFFFF" points="1.20205714 1.57453714 1.20205714 40.98528 66.2283429 68.5715657 133.717714 40.98528 133.717714 0.26208"></polyline>
                        <polyline id="Stroke-30" stroke="#9FA0A0" stroke-width="2" points="1.20205714 1.57453714 1.20205714 40.98528 66.2283429 68.5715657 133.717714 40.98528 133.717714 0.26208"></polyline>
                    </g>
                    <g id="Group-35" transform="translate(52.914286, 100.327086)">
                        <polyline id="Fill-32" fill="#FFFFFF" points="133.718126 25.3172571 66.2287543 0.6864 1.20246857 26.7956571"></polyline>
                        <polyline id="Stroke-34" stroke="#9FA0A0" stroke-width="2" points="133.718126 25.3172571 66.2287543 0.6864 1.20246857 26.7956571"></polyline>
                    </g>
                    <polygon id="Fill-36" fill="#FFFFFF" points="57.18368 126.27791 184.435439 125.8 118.178185 155.698789"></polygon>
                    <g id="Group-41" transform="translate(118.742857, 100.327086)">
                        <path d="M0.290194286,0.685988571 L0.399908571,137.143131" id="Fill-38" fill="#FFFFFF"></path>
                        <path d="M0.290194286,0.685988571 L0.399908571,137.143131" id="Stroke-40" stroke="#9FA0A0" stroke-width="2"></path>
                    </g>
                    <polygon id="Fill-42" fill="#FFFFFF" points="54.4448 127.614949 118.896457 157.665691 100.423314 192.476663 54.0731429 170.533806 32.4402286 159.307291"></polygon>
                    <polygon id="Stroke-44" stroke="#9FA0A0" stroke-width="2" points="54.4448 127.614949 118.896457 157.665691 100.423314 192.476663 54.0731429 170.533806 32.4402286 159.307291"></polygon>
                    <polygon id="Fill-46" fill="#FFFFFF" points="186.468251 126.465417 119.143451 157.665417 139.832823 192.47776 207.979109 159.307017"></polygon>
                    <polygon id="Stroke-48" stroke="#9FA0A0" stroke-width="2" points="186.468251 126.465417 119.143451 157.665417 139.832823 192.47776 207.979109 159.307017"></polygon>
                    <path d="M153.49088,117.698834 L151.411794,117.698834 C148.080594,117.698834 145.355566,114.972434 145.355566,111.641234 L145.355566,111.641234 C145.355566,108.310034 148.080594,105.585006 151.411794,105.585006 L153.49088,105.585006 C156.82208,105.585006 159.54848,108.310034 159.54848,111.641234 L159.54848,111.641234 C159.54848,114.972434 156.82208,117.698834 153.49088,117.698834" id="Fill-50" fill="#F7F8F8"></path>
                    <path d="M153.49088,117.698834 L151.411794,117.698834 C148.080594,117.698834 145.355566,114.972434 145.355566,111.641234 L145.355566,111.641234 C145.355566,108.310034 148.080594,105.585006 151.411794,105.585006 L153.49088,105.585006 C156.82208,105.585006 159.54848,108.310034 159.54848,111.641234 L159.54848,111.641234 C159.54848,114.972434 156.82208,117.698834 153.49088,117.698834 Z" id="Stroke-52" stroke="#9FA0A0" stroke-width="2"></path>
                    <path d="M91.7550629,116.670263 L89.6759771,116.670263 C86.3447771,116.670263 83.6197486,113.945234 83.6197486,110.612663 L83.6197486,110.612663 C83.6197486,107.281463 86.3447771,104.556434 89.6759771,104.556434 L91.7550629,104.556434 C95.0862629,104.556434 97.8126629,107.281463 97.8126629,110.612663 L97.8126629,110.612663 C97.8126629,113.945234 95.0862629,116.670263 91.7550629,116.670263" id="Fill-54" fill="#F7F8F8"></path>
                    <path d="M91.7550629,116.670263 L89.6759771,116.670263 C86.3447771,116.670263 83.6197486,113.945234 83.6197486,110.612663 L83.6197486,110.612663 C83.6197486,107.281463 86.3447771,104.556434 89.6759771,104.556434 L91.7550629,104.556434 C95.0862629,104.556434 97.8126629,107.281463 97.8126629,110.612663 L97.8126629,110.612663 C97.8126629,113.945234 95.0862629,116.670263 91.7550629,116.670263 Z" id="Stroke-56" stroke="#9FA0A0" stroke-width="2"></path>
                </g>
            </g>
        </g>
    </g>
</svg>