<?xml version="1.0" encoding="UTF-8"?>
<svg width="36px" height="42px" viewBox="0 0 36 42" version="1.1" xmlns="http://www.w3.org/2000/svg" xmlns:xlink="http://www.w3.org/1999/xlink">
    <!-- Generator: Sketch 46.2 (44496) - http://www.bohemiancoding.com/sketch -->
    <title>QQ</title>
    <desc>Created with Sketch.</desc>
    <defs></defs>
    <g id="效果图" stroke="none" stroke-width="1" fill="none" fill-rule="evenodd">
        <g id="01_登录_1短信登录" transform="translate(-290.000000, -1080.000000)" fill="#09C7D1">
            <g id="第三方登录" transform="translate(30.000000, 992.000000)">
                <g id="Group-4" transform="translate(0.000000, 58.000000)">
                    <g id="Group-8" transform="translate(260.000000, 29.000000)">
                        <path d="M32.5551773,23.3279664 L30.5293139,18.6316468 C30.5293139,18.6316468 31.1739068,13.2907343 28.68762,8.04190653 C26.1818112,2.7518248 17.9137103,-1.71907146 10.9152733,2.97724814 C3.91683621,7.67356774 4.46934439,18.6316468 4.46934439,18.6316468 L2.62765043,23.4200511 C-1.42407628,33.9177067 0.417617678,35.5752313 0.417617678,35.5752313 C1.61471875,35.1148078 4.1010056,31.6155892 4.1010056,31.6155892 C4.21187558,32.7250257 5.12867083,36.573061 8.41425286,39.4188466 C7.77223834,39.5687604 6.98104662,39.8442779 6.00421214,40.3330634 C2.44348104,42.1132448 5.39019137,42.7272656 5.39019137,42.7272656 C8.76675308,43.340918 15.5195082,42.7272656 15.5195082,42.7272656 C15.5195082,42.7272656 17.2286002,42.6849066 18.4662185,42.665753 C18.9822611,42.6576496 19.7152553,42.7272656 19.7152553,42.7272656 C19.7152553,42.7272656 26.4683788,43.340918 29.8445721,42.7272656 C29.8445721,42.7272656 32.7912825,42.1132448 29.2309197,40.3330634 C28.4253628,39.9301008 27.7479877,39.6741053 27.1733792,39.5109313 C30.8269317,36.1586799 31.2659915,31.3393351 31.2659915,31.3393351 C31.4501609,32.1680974 34.6731254,35.3910619 34.6731254,35.3910619 C36.3306499,33.5493679 32.5551773,23.3279664 32.5551773,23.3279664" id="QQ"></path>
                    </g>
                </g>
            </g>
        </g>
    </g>
</svg>