<?xml version="1.0" encoding="UTF-8"?>
<svg width="38px" height="41px" viewBox="0 0 38 41" version="1.1" xmlns="http://www.w3.org/2000/svg" xmlns:xlink="http://www.w3.org/1999/xlink">
    <!-- Generator: Sketch 46.2 (44496) - http://www.bohemiancoding.com/sketch -->
    <title>tab_buy_choose</title>
    <desc>Created with Sketch.</desc>
    <defs></defs>
    <g id="标注" stroke="none" stroke-width="1" fill="none" fill-rule="evenodd">
        <g id="首页展开" transform="translate(-246.000000, -3204.000000)" stroke="#09C7D1">
            <g id="底部-copy-4" transform="translate(0.000000, 3189.000000)">
                <g id="我要买" transform="translate(234.000000, 14.000000)">
                    <g id="tab_buy_choose" transform="translate(10.000000, 0.000000)">
                        <path d="M11.251744,14 C8.75952497,14 6.64782901,15.8353322 6.30053031,18.303234 L4.04890942,34.303234 C4.01642499,34.5340681 4.00012312,34.7668914 4.00012312,35 C4.00012312,37.7614237 6.23869937,40 9.00012312,40 L32.9990043,40 C33.2321129,40 33.4649362,39.9836981 33.6957703,39.9512137 C36.4302501,39.5664005 38.3350313,37.0377138 37.950218,34.303234 L35.6985971,18.303234 C35.3512984,15.8353322 33.2396025,14 30.7473834,14 L11.251744,14 Z" id="Rectangle-5" stroke-width="4"></path>
                        <path d="M28,13 L28,10 C28,6.13400675 24.8659932,3 21,3 C17.1340068,3 14,6.13400675 14,10 L14,13 L28,13 Z" id="Combined-Shape" stroke-width="4"></path>
                        <path d="M14.5,22.5 L14.5,24.5" id="Line-3" stroke-width="3" stroke-linecap="round" stroke-linejoin="round"></path>
                        <path d="M28.5,22.5 L28.5,24.5" id="Line-3-Copy" stroke-width="3" stroke-linecap="round" stroke-linejoin="round"></path>
                    </g>
                </g>
            </g>
        </g>
    </g>
</svg>