<?xml version="1.0" encoding="UTF-8"?>
<svg width="42px" height="42px" viewBox="0 0 42 42" version="1.1" xmlns="http://www.w3.org/2000/svg" xmlns:xlink="http://www.w3.org/1999/xlink">
    <!-- Generator: Sketch 46.2 (44496) - http://www.bohemiancoding.com/sketch -->
    <title>tab_mai_choose</title>
    <desc>Created with Sketch.</desc>
    <defs></defs>
    <g id="标注" stroke="none" stroke-width="1" fill="none" fill-rule="evenodd">
        <g id="首页展开" transform="translate(-432.000000, -3203.000000)" stroke="#09C7D1">
            <g id="底部-copy-4" transform="translate(0.000000, 3189.000000)">
                <g id="我要卖" transform="translate(422.000000, 14.000000)">
                    <g id="tab_mai_choose" transform="translate(10.000000, 0.000000)">
                        <path d="M20.0017771,40 C17.416136,40 13.8271967,40 9.23495916,40 C4.39811951,40 1.98648544,37.9920774 2.00005696,33.9762322 C2.00005696,35.3918954 2.00005696,34.0078331 2.00005696,29.8240453 C2.00005696,23.5483636 11.6008527,15.9054997 12.5254203,14.5935275 C13.4499879,13.2815553 11.9482617,11.7360772 11.4556349,9.75755696 C10.9630082,7.7790367 9.26451677,3.38838308 13.4499879,4.60130078 C16.2403021,5.40991259 17.6354591,5.57671613 17.6354591,5.10171141 C16.9320738,5.32208619 16.9320738,4.81363512 17.6354591,3.5763582 C18.2736252,2.45380398 19.3951483,1.93079369 21.0000285,2.00732731 C22.6049086,1.93079369 23.7264318,2.45380398 24.3645978,3.5763582 C25.0679832,4.81363512 25.0679832,5.32208619 24.3645978,5.10171141 C24.3645978,5.57671613 25.7597549,5.40991259 28.550069,4.60130078 C32.7355402,3.38838308 31.0370488,7.7790367 30.544422,9.75755696 C30.0517953,11.7360772 28.550069,13.2815553 29.4746366,14.5935275 C30.3992042,15.9054997 40,23.3692532 40,29.8240453 C40,34.1272401 40,35.5113024 40,33.9762322 C39.9777389,37.9920774 37.5661048,40 32.7650978,40 C28.1286987,40 23.8709348,40 19.9918059,40 Z" id="Combined-Shape" stroke-width="4"></path>
                        <path d="M17,19 L19.5375977,22.1855469" id="Path-4" stroke-width="3" stroke-linecap="round"></path>
                        <path d="M22,19 L24.5375977,22.1855469" id="Path-4-Copy" stroke-width="3" stroke-linecap="round" transform="translate(23.500000, 21.000000) scale(-1, 1) translate(-23.500000, -21.000000) "></path>
                        <path d="M26,24 L16,24" id="Path-4-Copy-2" stroke-width="3" stroke-linecap="round"></path>
                        <path d="M26,29 L16,29" id="Path-4-Copy-3" stroke-width="3" stroke-linecap="round"></path>
                        <path d="M27.0118359,28.5 L15.9886544,28.5" id="Path-4-Copy-4" stroke-width="3" stroke-linecap="round" transform="translate(21.500000, 29.000000) rotate(-90.000000) translate(-21.500000, -29.000000) "></path>
                    </g>
                </g>
            </g>
        </g>
    </g>
</svg>