<?xml version="1.0" encoding="UTF-8"?>
<svg width="38px" height="41px" viewBox="0 0 38 41" version="1.1" xmlns="http://www.w3.org/2000/svg" xmlns:xlink="http://www.w3.org/1999/xlink">
    <!-- Generator: Sketch 46.2 (44496) - http://www.bohemiancoding.com/sketch -->
    <title>tab_buy</title>
    <desc>Created with Sketch.</desc>
    <defs></defs>
    <g id="标注" stroke="none" stroke-width="1" fill="none" fill-rule="evenodd">
        <g id="首页展开" transform="translate(-246.000000, -3083.000000)" stroke-width="3">
            <g id="底部-copy-3" transform="translate(0.000000, 3068.000000)">
                <g id="我要买" transform="translate(234.000000, 14.000000)">
                    <g id="tab_buy" transform="translate(10.000000, 0.000000)">
                        <path d="M11.2818265,13.5 C8.53986579,13.5 6.21672655,15.5196105 5.83530098,18.2349122 L3.58773888,34.2349122 C3.55213268,34.4883865 3.53426444,34.7440371 3.53426444,35 C3.53426444,38.0375661 5.99669832,40.5 9.03426444,40.5 L32.9648943,40.5 C33.2208572,40.5 33.4765079,40.4821318 33.7299821,40.4465256 C36.7380151,40.0239793 38.8339662,37.2429452 38.4114199,34.2349122 L36.1638578,18.2349122 C35.7824322,15.5196105 33.459293,13.5 30.7173322,13.5 L11.2818265,13.5 Z" id="Rectangle-5" stroke="#666666"></path>
                        <path d="M28.5,13.5 L28.5,10 C28.5,5.85786438 25.1421356,2.5 21,2.5 C16.8578644,2.5 13.5,5.85786438 13.5,10 L13.5,13.5 L28.5,13.5 Z" id="Combined-Shape" stroke="#666666"></path>
                        <path d="M14.5,22.5 L14.5,24.5" id="Line-3" stroke="#999999" stroke-linecap="round" stroke-linejoin="round"></path>
                        <path d="M28.5,22.5 L28.5,24.5" id="Line-3-Copy" stroke="#999999" stroke-linecap="round" stroke-linejoin="round"></path>
                    </g>
                </g>
            </g>
        </g>
    </g>
</svg>