<?xml version="1.0" standalone="no"?><!DOCTYPE svg PUBLIC "-//W3C//DTD SVG 1.1//EN" "http://www.w3.org/Graphics/SVG/1.1/DTD/svg11.dtd"><svg t="1507887404244" class="icon" style="" viewBox="0 0 1024 1024" version="1.1" xmlns="http://www.w3.org/2000/svg" p-id="20011" xmlns:xlink="http://www.w3.org/1999/xlink" width="256" height="256"><defs><style type="text/css"></style></defs><path d="M749.614258 723.757868 349.693916 723.757868c-17.141402 0-31.914874-12.065803-35.326577-28.859281L184.569134 179.38353l-104.545054-34.086329c-16.906042-10.511401-22.090111-32.738635-11.57871-49.646724 10.510378-16.903995 32.747845-22.096251 49.646724-11.57564l117.738541 42.279942c8.423857 5.235235 14.3181 13.712303 16.287965 23.430642l127.027092 501.873362 345.793584 0 165.794024-252.170277c7.198959-18.551518 28.093848-27.762297 46.65253-20.568455 18.549471 7.203052 27.765367 28.086685 20.566408 46.64946L783.216563 700.742688C777.845229 714.62486 764.494153 723.757868 749.614258 723.757868L749.614258 723.757868z" p-id="20012" fill="#FFFFFF"></path><path d="M721.001593 307.860646 591.079568 454.94147c-7.091512 8.023744-18.685571 8.023744-25.777083 0L435.354877 307.860646c-7.090489-8.024767-4.13211-14.5903 6.574742-14.5903l102.186334 0L544.115953 128.58047c0-10.708899 8.757454-19.465331 19.465331-19.465331l29.196972 0c10.707876 0 19.464307 8.756431 19.464307 19.465331L612.242564 293.272393l102.183264 0C725.137797 293.272393 728.093105 299.838949 721.001593 307.860646L721.001593 307.860646z" p-id="20013" fill="#FFFFFF"></path><path d="M412.567895 881.754299m-63.956637 0a62.5 62.5 0 1 0 127.913275 0 62.5 62.5 0 1 0-127.913275 0Z" p-id="20014" fill="#FFFFFF"></path><path d="M744.119103 881.754299m-63.956637 0a62.5 62.5 0 1 0 127.913275 0 62.5 62.5 0 1 0-127.913275 0Z" p-id="20015" fill="#FFFFFF"></path></svg>