<?xml version="1.0" standalone="no"?><!DOCTYPE svg PUBLIC "-//W3C//DTD SVG 1.1//EN" "http://www.w3.org/Graphics/SVG/1.1/DTD/svg11.dtd"><svg t="1507887906759" class="icon" style="" viewBox="0 0 1024 1024" version="1.1" xmlns="http://www.w3.org/2000/svg" p-id="27819" xmlns:xlink="http://www.w3.org/1999/xlink" width="256" height="256"><defs><style type="text/css"></style></defs><path d="M512 64C264.96 64 64 264.96 64 512s200.96 448 448 448 448-200.96 448-448S759.04 64 512 64zM289.216 824.16c3.168-0.128 6.336-0.224 9.472-1.344 62.784-22.24 124.8-38.24 158.016-40.8 16.672-1.28 29.536-15.2 29.536-31.904V691.04a32.008 32.008 0 0 0-11.296-24.416c-53.088-45.088-72-144.768-72-223.072 0-90.016 42.144-135.648 125.28-135.648 79.2 0 117.696 44.352 117.696 135.648 0 88.928-39.296 189.856-89.44 229.792a31.952 31.952 0 0 0-12.064 25.024v55.008c0 16.224 12.128 29.824 28.224 31.776 37.184 4.448 101.088 25.952 148.48 44.64 1.568 0.608 3.2 0.544 4.832 0.896C664.768 871.904 591.136 896 512 896c-83.104 0-159.904-26.816-222.784-71.84z m475.392-23.648c0.224-12.96-7.296-25.248-20.064-30.304-20.8-8.192-84.16-32.32-136.128-43.68v-13.6c66.688-62.816 101.504-180.48 101.504-269.376 0-126.88-66.208-199.648-181.696-199.648-118.528 0-189.28 74.624-189.28 199.648 0 42.944 6.24 183.936 83.296 261.408v17.152c-44.704 7.904-101.44 25.024-144.928 40.416-15.008 5.312-22.976 20.704-20.16 35.936C178.144 728.064 128 625.92 128 512c0-211.744 172.256-384 384-384s384 172.256 384 384c0 115.008-51.072 218.08-131.392 288.512z" fill="#666666" p-id="27820"></path></svg>