<?xml version="1.0" standalone="no"?><!DOCTYPE svg PUBLIC "-//W3C//DTD SVG 1.1//EN" "http://www.w3.org/Graphics/SVG/1.1/DTD/svg11.dtd"><svg t="1508229643381" class="icon" style="" viewBox="0 0 1057 1024" version="1.1" xmlns="http://www.w3.org/2000/svg" p-id="4651" xmlns:xlink="http://www.w3.org/1999/xlink" width="264.25" height="256"><defs><style type="text/css"></style></defs><path d="M527.462 318.626c-105.781 0-188.422 85.946-188.422 191.727s85.946 191.727 188.422 191.727c105.742 0 188.383-85.946 188.383-191.727s-85.908-191.727-188.383-191.727zM663.975 510.379c0 74.764-61.762 136.525-136.526 136.525s-136.526-61.762-136.526-136.525 61.762-136.526 136.526-136.526 136.526 61.762 136.526 136.526z" fill="#ffffff" p-id="4652"></path><path d="M982.027 421.591c0-9.684-6.457-16.141-16.141-19.37-48.423-9.684-87.16-38.737-112.986-83.932-15.605-25.153-24.855-55.667-24.855-88.342 0-14.946 1.935-29.439 5.569-43.244l3.171-10.441c3.228-6.457 0-16.141-6.457-22.597-45.194-41.966-96.845-71.020-151.724-90.388-6.457-3.228-16.141 0-22.597 6.457-32.281 38.737-80.704 58.107-129.127 58.107s-93.617-22.598-129.127-58.107c-6.457-6.457-12.913-9.684-22.597-6.457-54.878 22.597-106.53 51.651-151.724 90.388-6.457 3.228-9.684 12.913-6.457 22.597 12.913 48.423 9.684 96.845-16.141 142.039-22.597 41.966-64.564 71.020-112.986 83.933-8.568 4.58-14.794 12.589-16.886 22.144-5.711 29.507-8.939 58.561-8.939 87.614 0.030 32.154 3.582 63.463 10.291 93.581-0.608 6.491 5.849 12.948 15.533 16.177 48.423 9.684 87.16 38.737 112.986 83.932 15.654 25.067 24.938 55.511 24.938 88.123 0 11.84-1.223 23.393-3.551 34.542l-5.272 19.4c-3.228 6.457 0 16.141 6.457 22.597 45.194 41.966 96.845 71.020 151.724 90.388h6.457c6.335-0.133 12.059-2.633 16.349-6.649 32.073-38.545 80.496-57.915 128.918-57.915s93.617 22.598 129.127 58.107c6.457 6.457 12.913 9.684 22.598 6.457 54.878-22.597 106.53-51.651 151.724-90.388 6.457-3.228 9.684-12.913 6.457-22.597-12.913-48.423-9.684-96.845 16.141-142.039 22.597-41.966 64.564-71.020 112.986-83.933 8.568-4.58 14.794-12.589 16.886-22.144 5.711-29.507 8.939-58.561 8.939-87.614-0.027-32.154-3.577-63.466-10.284-93.587zM787.149 838.942c-31.739 28.576-69.832 50.786-111.049 66.655-41.321-38.093-92.054-60.315-149.193-60.315-53.963 0-107.923 22.223-149.193 60.315-38.093-15.87-111.049-66.655-111.049-66.655l2.467-12.113c8.716-50.36-1.188-102.772-24.689-149.787-28.679-47.608-73.112-85.702-127.087-101.584-3.176-22.223-6.352-44.445-6.352-66.667s3.176-44.445 6.352-66.655c53.963-15.869 98.408-53.962 126.97-101.584 25.4-50.786 34.865-107.923 22.222-161.886 31.752-28.563 69.845-50.773 111.113-66.655 41.321 38.093 95.231 60.315 149.193 60.315 57.139 0 107.923-22.222 149.193-60.315 37.227 15.495 76.792 38.958 111.049 66.604l-2.453 12.113c-9.143 50.746-1.743 105.743 24.715 149.787 28.588 47.712 73.060 85.765 126.983 101.636 3.176 22.223 6.353 44.445 6.353 66.668s-3.176 44.445-6.353 66.667c-53.923 15.856-98.394 53.949-126.97 101.571-25.4 50.773-34.915 107.923-22.223 161.886z" fill="#ffffff" p-id="4653"></path></svg>