<?xml version="1.0" encoding="utf-8"?>
<!-- Generator: Adobe Illustrator 19.0.0, SVG Export Plug-In . SVG Version: 6.00 Build 0)  -->
<svg version="1.1" id="图层_1" xmlns="http://www.w3.org/2000/svg" xmlns:xlink="http://www.w3.org/1999/xlink" x="0px" y="0px"
	 viewBox="0 0 512 512" style="enable-background:new 0 0 512 512;" xml:space="preserve">
<style type="text/css">
	.st0{fill:#09C7D1;}
	.st1{fill:#FFFFFF;}
</style>
<rect id="XMLID_1_" x="0" y="0" class="st0" width="512" height="512"/>
<g id="XMLID_793_">
	<g id="XMLID_794_">
		<path id="XMLID_803_" class="st1" d="M261.6,345.1c-58.8,0-131.2-28.3-167.3-75.9c-13.6-17.9-10.1-43.5,7.8-57.1
			c17.9-13.6,43.5-10.1,57.1,7.8c21.1,27.8,69.7,44.2,103.6,43.7c30.6-0.4,68.3-17,90.1-44.4c14-17.6,39.6-20.6,57.2-6.6
			c17.6,14,20.5,39.6,6.6,57.2c-37.5,47.1-97.2,74.6-152.9,75.2C263,345.1,262.3,345.1,261.6,345.1z"/>
		<g id="XMLID_797_">
			<path id="XMLID_802_" class="st1" d="M337.6,381.4"/>
			<g id="XMLID_800_">
				<path id="XMLID_801_" class="st1" d="M344.3,338.2v47.6c0,22.5,18.2,40.7,40.7,40.7c22.5,0,40.7-18.2,40.7-40.7V280.1
					C405.7,304.1,376.7,324.3,344.3,338.2z"/>
			</g>
			<g id="XMLID_798_">
				<path id="XMLID_799_" class="st1" d="M167.6,338.2v47.6c0,22.5-18.2,40.7-40.7,40.7s-40.7-18.2-40.7-40.7V280.1
					C106.2,304.1,135.2,324.3,167.6,338.2z"/>
			</g>
		</g>
		<path id="XMLID_796_" class="st1" d="M126.8,187.8c-22.5,0-40.7-18.2-40.7-40.7v-20.8c0-22.5,18.2-40.7,40.7-40.7
			s40.7,18.2,40.7,40.7V147C167.5,169.5,149.3,187.8,126.8,187.8z"/>
		<path id="XMLID_795_" class="st1" d="M385.3,187.8c-22.5,0-40.7-18.2-40.7-40.7v-20.8c0-22.5,18.2-40.7,40.7-40.7
			s40.7,18.2,40.7,40.7V147C426,169.5,407.8,187.8,385.3,187.8z"/>
	</g>
</g>
</svg>
